<?xml version="1.0" encoding="UTF-8" standalone="no"?>
<!-- Created with Inkscape (http://www.inkscape.org/) -->

<svg
   xmlns:dc="http://purl.org/dc/elements/1.1/"
   xmlns:cc="http://creativecommons.org/ns#"
   xmlns:rdf="http://www.w3.org/1999/02/22-rdf-syntax-ns#"
   xmlns:svg="http://www.w3.org/2000/svg"
   xmlns="http://www.w3.org/2000/svg"
   xmlns:sodipodi="http://sodipodi.sourceforge.net/DTD/sodipodi-0.dtd"
   xmlns:inkscape="http://www.inkscape.org/namespaces/inkscape"
   width="25"
   height="25"
   id="svg2"
   version="1.1"
   inkscape:version="0.48.1 r9760"
   sodipodi:docname="Frog.svg">
  <defs
     id="defs4" />
  <sodipodi:namedview
     id="base"
     pagecolor="#ffffff"
     bordercolor="#666666"
     borderopacity="1.0"
     inkscape:pageopacity="0.0"
     inkscape:pageshadow="2"
     inkscape:zoom="15.839192"
     inkscape:cx="11.783149"
     inkscape:cy="18.142517"
     inkscape:document-units="px"
     inkscape:current-layer="layer1"
     showgrid="false"
     inkscape:window-width="1280"
     inkscape:window-height="743"
     inkscape:window-x="-4"
     inkscape:window-y="30"
     inkscape:window-maximized="1" />
  <metadata
     id="metadata7">
    <rdf:RDF>
      <cc:Work
         rdf:about="">
        <dc:format>image/svg+xml</dc:format>
        <dc:type
           rdf:resource="http://purl.org/dc/dcmitype/StillImage" />
        <dc:title />
      </cc:Work>
    </rdf:RDF>
  </metadata>
  <g
     inkscape:label="Layer 1"
     inkscape:groupmode="layer"
     id="layer1"
     transform="translate(0,-1027.3622)">
    <path
       style="fill:#32b200;stroke:#000000;stroke-width:0.30000000999999998;stroke-linecap:butt;stroke-linejoin:miter;stroke-miterlimit:4;stroke-opacity:1;stroke-dasharray:none;fill-opacity:1"
       d="m 16.51154,1043.6518 c 1.977232,-1.0599 3.360602,-2.9512 4.956061,-4.5457 -3.043853,0.9253 -1.691256,-0.78 -1.483662,-1.894 -1.027151,1.0978 -2.180681,1.794 -2.872621,0.1263 z"
       id="path3756"
       inkscape:connector-curvature="0"
       sodipodi:nodetypes="ccccc" />
    <path
       style="fill:#59fc00;fill-opacity:1;stroke:#000000;stroke-width:0.48399999999999999;stroke-linecap:round;stroke-linejoin:round;stroke-miterlimit:4;stroke-opacity:1;stroke-dasharray:none"
       d="M 12.1875 1.4375 C 11.14484 1.4375 10.298658 1.99955 9.59375 2.28125 C 7.016893 3.31095 6.5170134 5.66055 7.03125 9.03125 C 7.6292828 12.95135 8.886662 16.09375 12.25 16.09375 C 12.71828 16.09375 13.139457 16.029918 13.53125 15.90625 C 14.049925 15.987693 14.725426 15.712839 15.40625 15.1875 C 15.380055 15.873938 15.479021 16.394246 15.78125 16.5 C 16.324142 16.689966 17.196296 15.545728 17.71875 13.96875 C 18.226869 12.435043 18.218645 11.06276 17.71875 10.8125 C 17.669838 10.504129 17.555442 10.253613 17.34375 10.09375 C 17.336543 10.088308 17.319882 10.098954 17.3125 10.09375 C 17.404513 9.675184 17.48787 9.2479144 17.5625 8.8125 C 18.131799 5.4912 17.625429 3.3999 15.1875 2.375 C 14.398739 2.0434 13.407519 1.4375 12.1875 1.4375 z "
       transform="translate(0,1027.3622)"
       id="path3753" />
  </g>
</svg>
