<?xml version="1.0" encoding="UTF-8" standalone="no"?>
<!-- Created with Inkscape (http://www.inkscape.org/) -->

<svg
   xmlns:dc="http://purl.org/dc/elements/1.1/"
   xmlns:cc="http://creativecommons.org/ns#"
   xmlns:rdf="http://www.w3.org/1999/02/22-rdf-syntax-ns#"
   xmlns:svg="http://www.w3.org/2000/svg"
   xmlns="http://www.w3.org/2000/svg"
   xmlns:sodipodi="http://sodipodi.sourceforge.net/DTD/sodipodi-0.dtd"
   xmlns:inkscape="http://www.inkscape.org/namespaces/inkscape"
   width="100"
   height="75"
   id="svg2"
   version="1.1"
   inkscape:version="0.48.1 r9760"
   sodipodi:docname="collision.pdf"
   inkscape:export-filename="/home/DATA/SpiderOak/Escuela/FC/SP1/Frogger/doc/img/layer-model.png"
   inkscape:export-xdpi="450"
   inkscape:export-ydpi="450">
  <defs
     id="defs4">
    <marker
       inkscape:stockid="StopL"
       orient="auto"
       refY="0.0"
       refX="0.0"
       id="StopL"
       style="overflow:visible">
      <path
         id="path4004"
         d="M 0.0,5.65 L 0.0,-5.65"
         style="fill:none;fill-opacity:0.75000000;fill-rule:evenodd;stroke:#000000;stroke-width:1.0pt"
         transform="scale(0.8)" />
    </marker>
    <linearGradient
       id="linearGradient3842">
      <stop
         id="stop3844"
         offset="0"
         style="stop-color:#f4cf4d;stop-opacity:1;" />
      <stop
         id="stop3846"
         offset="1"
         style="stop-color:#d21100;stop-opacity:1;" />
    </linearGradient>
    <linearGradient
       id="linearGradient3857">
      <stop
         style="stop-color:#ffffff;stop-opacity:0.2739726;"
         offset="0"
         id="stop3859" />
      <stop
         style="stop-color:#ffffff;stop-opacity:0.04794521;"
         offset="1"
         id="stop3861" />
    </linearGradient>
  </defs>
  <sodipodi:namedview
     id="base"
     pagecolor="#ffffff"
     bordercolor="#666666"
     borderopacity="1.0"
     inkscape:pageopacity="0.0"
     inkscape:pageshadow="2"
     inkscape:zoom="5.6"
     inkscape:cx="37.342529"
     inkscape:cy="30.972455"
     inkscape:document-units="px"
     inkscape:current-layer="g4129"
     showgrid="false"
     inkscape:window-width="1280"
     inkscape:window-height="743"
     inkscape:window-x="-4"
     inkscape:window-y="30"
     inkscape:window-maximized="1" />
  <metadata
     id="metadata7">
    <rdf:RDF>
      <cc:Work
         rdf:about="">
        <dc:format>image/svg+xml</dc:format>
        <dc:type
           rdf:resource="http://purl.org/dc/dcmitype/StillImage" />
        <dc:title></dc:title>
      </cc:Work>
    </rdf:RDF>
  </metadata>
  <g
     inkscape:label="Layer 1"
     inkscape:groupmode="layer"
     id="layer1"
     transform="translate(0,-977.36218)">
    <g
       id="g3056"
       transform="matrix(2.8358442,0,0,3.2754395,-16.33955,-2275.5479)">
      <rect
         rx="2.1428571"
         ry="3.2833617"
         transform="matrix(1,0,0.0149282,0.99988857,0,0)"
         y="997.16748"
         x="-7.4893274"
         height="6.5667233"
         width="31.567266"
         id="rect4085"
         style="fill:#a06600;fill-opacity:1;stroke:#000000;stroke-width:0.65626347;stroke-linecap:round;stroke-linejoin:round;stroke-miterlimit:4;stroke-opacity:1;stroke-dasharray:none" />
      <path
         transform="matrix(1.5784855,0,0.01785069,1.1956368,104.06887,954.66308)"
         d="m -41.607144,38.169643 c 0,1.493251 -0.719542,2.703771 -1.607143,2.703771 -0.8876,0 -1.607143,-1.21052 -1.607143,-2.703771 0,-1.493251 0.719543,-2.70377 1.607143,-2.70377 0.887601,0 1.607143,1.210519 1.607143,2.70377 z"
         sodipodi:ry="2.7037702"
         sodipodi:rx="1.6071428"
         sodipodi:cy="38.169643"
         sodipodi:cx="-43.214287"
         id="path4087"
         style="fill:#ffffff;fill-opacity:1;stroke:#000000;stroke-width:0.47767672;stroke-linecap:round;stroke-linejoin:round;stroke-miterlimit:4;stroke-opacity:1;stroke-dasharray:none"
         sodipodi:type="arc" />
      <path
         sodipodi:type="arc"
         style="fill:#ffffff;fill-opacity:1;stroke:#a06600;stroke-width:1.64915609;stroke-linecap:round;stroke-linejoin:round;stroke-miterlimit:4;stroke-opacity:1;stroke-dasharray:none"
         id="path4089"
         sodipodi:cx="-43.214287"
         sodipodi:cy="38.169643"
         sodipodi:rx="1.6071428"
         sodipodi:ry="2.7037702"
         d="m -41.607144,38.169643 c 0,1.493251 -0.719542,2.703771 -1.607143,2.703771 -0.8876,0 -1.607143,-1.21052 -1.607143,-2.703771 0,-1.493251 0.719543,-2.70377 1.607143,-2.70377 0.887601,0 1.607143,1.210519 1.607143,2.70377 z"
         transform="matrix(0.69672101,0,0.00787904,0.52773705,66.439364,980.15658)" />
    </g>
    <g
       transform="matrix(1.2905279,0,0.01926736,1.2905279,-13.924902,-303.61704)"
       id="g4129">
      <path
         inkscape:connector-curvature="0"
         id="path4131"
         d="m 10.708254,1030.1749 0,2 -1.9830433,0 0,12 0.030985,0 1.7041783,0 0.278865,0 0,2 8.892709,0 0,-2 0.09295,0 1.890088,0 0.03099,0 0,-12 -0.03099,0 -1.890088,0 -0.09295,0 0,-2 z"
         style="fill:#a3f226;fill-opacity:1;stroke:#000000;stroke-opacity:1"
         sodipodi:nodetypes="ccccccccccccccccccc" />
      <path
         inkscape:connector-curvature="0"
         id="path4133"
         d="m 4.6565405,1030.1712 0,2 -1.9687499,0 0,2 1.9687499,0 0,4 2,0 0.03125,0 2.0625,0 0,-2 3.9375005,0 0,-4 -3.9687505,0 0,4 -2.03125,0 0,-6 -2.03125,0 z m 8.0625005,0 0,2 2.96875,0 0,-2 -2.96875,0 z m 10.96875,0 0,6 -2,0 0,-4 -3.96875,0 0,4 3.90625,0 0,2 2.0625,0 0.03125,0 2,0 0,-4 1.96875,0 0,-2 -1.96875,0 0,-2 -2.03125,0 z m -12.96875,8 0,4 1.96875,0 0,2 2,0 0,-2 -1.96875,0 0,-4 -2,0 z m 1.96875,6 -2,0 0,2 2,0 0,-2 z m -2,0 0,-2 -1.9062505,0 0,-2 -2.0625,0 -0.03125,0 -2,0 0,5.0313 -1.9687499,0 0,2 1.9687499,0 0,2 2.03125,0 0,-7.0313 1.96875,0 0,2 2.0000005,0 z m 10.9375,-4 0,2 -1.90625,0 0,2 2,0 0,-2 1.96875,0 0,7.0313 2.03125,0 0,-2 1.96875,0 0,-2 -1.96875,0 0,-5.0313 -2,0 -0.03125,0 -2.0625,0 z m -3.9375,4 0,2 2,0 0,-2 -2,0 z"
         style="fill:#4a7212;fill-opacity:1;stroke:#000000;stroke-opacity:1" />
      <path
         inkscape:connector-curvature="0"
         id="path4135"
         d="m 8.7190405,1032.1712 0,2 2.0000005,0 0,-2 -2.0000005,0 z m 10.9687505,0 0,2 2,0 0,-2 -2,0 z"
         style="fill:#d137df;fill-opacity:1;stroke:#000000;stroke-width:1.00036585;stroke-miterlimit:4;stroke-opacity:1;stroke-dasharray:none" />
      <path
         style="fill:none;stroke:#000000;stroke-width:0.77487671px;stroke-linecap:butt;stroke-linejoin:miter;stroke-opacity:1;marker-start:url(#StopL);marker-end:url(#StopL)"
         d="m 2.4918757,1027.6676 25.7326983,0"
         id="path3829"
         inkscape:connector-curvature="0" />
      <path
         inkscape:connector-curvature="0"
         id="path4467"
         d="m -0.81368759,1000.0404 70.05555859,0"
         style="fill:none;stroke:#000000;stroke-width:0.77487671px;stroke-linecap:butt;stroke-linejoin:miter;stroke-opacity:1;marker-start:url(#StopL);marker-end:url(#StopL)"
         sodipodi:nodetypes="cc" />
      <flowRoot
         xml:space="preserve"
         id="flowRoot4469"
         style="font-size:4px;font-style:normal;font-weight:normal;line-height:125%;letter-spacing:0px;word-spacing:0px;fill:#000000;fill-opacity:1;stroke:none;font-family:Sans"
         transform="matrix(1.7407301,0,-0.02598881,1.7407301,-95.466327,962.58184)"><flowRegion
           id="flowRegion4471"><rect
             id="rect4473"
             width="14.142136"
             height="15.531096"
             x="63.765881"
             y="32.82613" /></flowRegion><flowPara
           id="flowPara4475">i</flowPara></flowRoot>      <flowRoot
         transform="matrix(1.7407301,0,-0.02598881,1.7407301,-77.372905,935.15491)"
         style="font-size:4px;font-style:normal;font-weight:normal;line-height:125%;letter-spacing:0px;word-spacing:0px;fill:#000000;fill-opacity:1;stroke:none;font-family:Sans"
         id="flowRoot4477"
         xml:space="preserve"><flowRegion
           id="flowRegion4479"><rect
             y="32.82613"
             x="63.765881"
             height="15.531096"
             width="14.142136"
             id="rect4481" /></flowRegion><flowPara
           id="flowPara4483">K</flowPara></flowRoot>      <flowRoot
         transform="matrix(1.2794447,0,-0.0191019,1.2794447,-82.919308,977.19625)"
         style="font-size:4px;font-style:normal;font-weight:normal;line-height:125%;letter-spacing:0px;word-spacing:0px;fill:#000000;fill-opacity:1;stroke:none;font-family:Sans"
         id="flowRoot4523"
         xml:space="preserve"><flowRegion
           id="flowRegion4525"><rect
             y="32.82613"
             x="63.765881"
             height="15.531096"
             width="14.142136"
             id="rect4527" /></flowRegion><flowPara
           id="flowPara4529">x</flowPara></flowRoot>      <flowRoot
         xml:space="preserve"
         id="flowRoot4550"
         style="font-size:4px;font-style:normal;font-weight:normal;line-height:125%;letter-spacing:0px;word-spacing:0px;fill:#000000;fill-opacity:1;stroke:none;font-family:Sans"
         transform="matrix(1.2794447,0,-0.0191019,1.2794447,-51.157838,978.11736)"><flowRegion
           id="flowRegion4552"><rect
             id="rect4554"
             width="14.142136"
             height="15.531096"
             x="63.765881"
             y="32.82613" /></flowRegion><flowPara
           id="flowPara4556">x+i</flowPara></flowRoot>    </g>
  </g>
</svg>
