<?xml version="1.0" encoding="UTF-8" standalone="no"?>
<!-- Created with Inkscape (http://www.inkscape.org/) -->

<svg
   xmlns:dc="http://purl.org/dc/elements/1.1/"
   xmlns:cc="http://creativecommons.org/ns#"
   xmlns:rdf="http://www.w3.org/1999/02/22-rdf-syntax-ns#"
   xmlns:svg="http://www.w3.org/2000/svg"
   xmlns="http://www.w3.org/2000/svg"
   xmlns:sodipodi="http://sodipodi.sourceforge.net/DTD/sodipodi-0.dtd"
   xmlns:inkscape="http://www.inkscape.org/namespaces/inkscape"
   width="100"
   height="75"
   id="svg2"
   version="1.1"
   inkscape:version="0.48.1 r9760"
   sodipodi:docname="layer-model.pdf"
   inkscape:export-filename="/home/DATA/SpiderOak/Escuela/FC/SP1/Frogger/doc/img/layer-model.png"
   inkscape:export-xdpi="450"
   inkscape:export-ydpi="450">
  <defs
     id="defs4">
    <linearGradient
       id="linearGradient3842">
      <stop
         id="stop3844"
         offset="0"
         style="stop-color:#f4cf4d;stop-opacity:1;" />
      <stop
         id="stop3846"
         offset="1"
         style="stop-color:#d21100;stop-opacity:1;" />
    </linearGradient>
    <linearGradient
       id="linearGradient3857">
      <stop
         style="stop-color:#ffffff;stop-opacity:0.2739726;"
         offset="0"
         id="stop3859" />
      <stop
         style="stop-color:#ffffff;stop-opacity:0.04794521;"
         offset="1"
         id="stop3861" />
    </linearGradient>
  </defs>
  <sodipodi:namedview
     id="base"
     pagecolor="#ffffff"
     bordercolor="#666666"
     borderopacity="1.0"
     inkscape:pageopacity="0.0"
     inkscape:pageshadow="2"
     inkscape:zoom="3.959798"
     inkscape:cx="45.617324"
     inkscape:cy="35.509436"
     inkscape:document-units="px"
     inkscape:current-layer="layer1"
     showgrid="false"
     inkscape:window-width="1280"
     inkscape:window-height="743"
     inkscape:window-x="-4"
     inkscape:window-y="30"
     inkscape:window-maximized="1" />
  <metadata
     id="metadata7">
    <rdf:RDF>
      <cc:Work
         rdf:about="">
        <dc:format>image/svg+xml</dc:format>
        <dc:type
           rdf:resource="http://purl.org/dc/dcmitype/StillImage" />
        <dc:title></dc:title>
      </cc:Work>
    </rdf:RDF>
  </metadata>
  <g
     inkscape:label="Layer 1"
     inkscape:groupmode="layer"
     id="layer1"
     transform="translate(0,-977.36218)">
    <g
       transform="matrix(1,0,0.01492984,1,-121.25386,15.404826)"
       id="g4059">
      <rect
         style="fill:none;stroke:#000000;stroke-width:0.99622136;stroke-miterlimit:4;stroke-opacity:1;stroke-dasharray:none"
         id="rect4061"
         width="62.697594"
         height="52.984577"
         x="13.104601"
         y="980.71423"
         ry="0" />
      <path
         inkscape:connector-curvature="0"
         style="fill:#c3e000;fill-opacity:1;stroke:#000000;stroke-width:1;stroke-linecap:round;stroke-linejoin:round;stroke-miterlimit:4;stroke-opacity:1;stroke-dasharray:none"
         d="m 13.125,28.40625 0,6.5625 6.5625,0 0,-6.5625 -6.5625,0 z m 7.0625,0 0,6.5625 6.59375,0 0,-6.5625 -6.59375,0 z m 6.96875,0 0,6.5625 6.5625,0 0,-6.5625 -6.5625,0 z m 6.9375,0 0,6.5625 6.5625,0 0,-6.5625 -6.5625,0 z m 7.0625,0 0,6.5625 6.5625,0 0,-6.5625 -6.5625,0 z m 6.9375,0 0,6.5625 6.59375,0 0,-6.5625 -6.59375,0 z m 6.96875,0 0,6.5625 6.5625,0 0,-6.5625 -6.5625,0 z m 7.0625,0 0,6.5625 6.5625,0 0,-6.5625 -6.5625,0 z m 6.9375,0 0,6.5625 6.5625,0 0,-6.5625 -6.5625,0 z"
         transform="translate(0,952.36218)"
         id="path4063" />
      <path
         style="fill:#c3e000;fill-opacity:1;stroke:#000000;stroke-width:1;stroke-linecap:round;stroke-linejoin:round;stroke-miterlimit:4;stroke-opacity:1;stroke-dasharray:none"
         d="m 13.125,1000.5931 0,6.5625 6.5625,0 0,-6.5625 -6.5625,0 z m 7.0625,0 0,6.5625 6.59375,0 0,-6.5625 -6.59375,0 z m 6.96875,0 0,6.5625 6.5625,0 0,-6.5625 -6.5625,0 z m 6.9375,0 0,6.5625 6.5625,0 0,-6.5625 -6.5625,0 z m 7.0625,0 0,6.5625 6.5625,0 0,-6.5625 -6.5625,0 z m 6.9375,0 0,6.5625 6.59375,0 0,-6.5625 -6.59375,0 z m 6.96875,0 0,6.5625 6.5625,0 0,-6.5625 -6.5625,0 z m 7.0625,0 0,6.5625 6.5625,0 0,-6.5625 -6.5625,0 z m 6.9375,0 0,6.5625 6.5625,0 0,-6.5625 -6.5625,0 z"
         id="path4065"
         inkscape:connector-curvature="0" />
      <path
         id="path4067"
         d="m 13.125,987.4607 0,6.5625 6.5625,0 0,-6.5625 -6.5625,0 z m 7.0625,0 0,6.5625 6.59375,0 0,-6.5625 -6.59375,0 z m 6.96875,0 0,6.5625 6.5625,0 0,-6.5625 -6.5625,0 z m 6.9375,0 0,6.5625 6.5625,0 0,-6.5625 -6.5625,0 z m 7.0625,0 0,6.5625 6.5625,0 0,-6.5625 -6.5625,0 z m 6.9375,0 0,6.5625 6.59375,0 0,-6.5625 -6.59375,0 z m 6.96875,0 0,6.5625 6.5625,0 0,-6.5625 -6.5625,0 z m 7.0625,0 0,6.5625 6.5625,0 0,-6.5625 -6.5625,0 z m 6.9375,0 0,6.5625 6.5625,0 0,-6.5625 -6.5625,0 z"
         style="fill:#00a3e0;fill-opacity:1;stroke:#000000;stroke-width:1;stroke-linecap:round;stroke-linejoin:round;stroke-miterlimit:4;stroke-opacity:1;stroke-dasharray:none"
         inkscape:connector-curvature="0" />
      <path
         inkscape:connector-curvature="0"
         style="fill:#00a3e0;fill-opacity:1;stroke:#000000;stroke-width:1;stroke-linecap:round;stroke-linejoin:round;stroke-miterlimit:4;stroke-opacity:1;stroke-dasharray:none"
         d="m 13.125,994.02669 0,6.56251 6.5625,0 0,-6.56251 -6.5625,0 z m 7.0625,0 0,6.56251 6.59375,0 0,-6.56251 -6.59375,0 z m 6.96875,0 0,6.56251 6.5625,0 0,-6.56251 -6.5625,0 z m 6.9375,0 0,6.56251 6.5625,0 0,-6.56251 -6.5625,0 z m 7.0625,0 0,6.56251 6.5625,0 0,-6.56251 -6.5625,0 z m 6.9375,0 0,6.56251 6.59375,0 0,-6.56251 -6.59375,0 z m 6.96875,0 0,6.56251 6.5625,0 0,-6.56251 -6.5625,0 z m 7.0625,0 0,6.56251 6.5625,0 0,-6.56251 -6.5625,0 z m 6.9375,0 0,6.56251 6.5625,0 0,-6.56251 -6.5625,0 z"
         id="path4069" />
      <path
         inkscape:connector-curvature="0"
         id="path4071"
         d="m 13.125,1007.0328 0,6.5625 6.5625,0 0,-6.5625 -6.5625,0 z m 7.0625,0 0,6.5625 6.59375,0 0,-6.5625 -6.59375,0 z m 6.96875,0 0,6.5625 6.5625,0 0,-6.5625 -6.5625,0 z m 6.9375,0 0,6.5625 6.5625,0 0,-6.5625 -6.5625,0 z m 7.0625,0 0,6.5625 6.5625,0 0,-6.5625 -6.5625,0 z m 6.9375,0 0,6.5625 6.59375,0 0,-6.5625 -6.59375,0 z m 6.96875,0 0,6.5625 6.5625,0 0,-6.5625 -6.5625,0 z m 7.0625,0 0,6.5625 6.5625,0 0,-6.5625 -6.5625,0 z m 6.9375,0 0,6.5625 6.5625,0 0,-6.5625 -6.5625,0 z"
         style="fill:#8c8c8c;fill-opacity:1;stroke:#000000;stroke-width:1;stroke-linecap:round;stroke-linejoin:round;stroke-miterlimit:4;stroke-opacity:1;stroke-dasharray:none" />
      <path
         style="fill:#8c8c8c;fill-opacity:1;stroke:#000000;stroke-width:1;stroke-linecap:round;stroke-linejoin:round;stroke-miterlimit:4;stroke-opacity:1;stroke-dasharray:none"
         d="m 13.125,1013.7251 0,6.5625 6.5625,0 0,-6.5625 -6.5625,0 z m 7.0625,0 0,6.5625 6.59375,0 0,-6.5625 -6.59375,0 z m 6.96875,0 0,6.5625 6.5625,0 0,-6.5625 -6.5625,0 z m 6.9375,0 0,6.5625 6.5625,0 0,-6.5625 -6.5625,0 z m 7.0625,0 0,6.5625 6.5625,0 0,-6.5625 -6.5625,0 z m 6.9375,0 0,6.5625 6.59375,0 0,-6.5625 -6.59375,0 z m 6.96875,0 0,6.5625 6.5625,0 0,-6.5625 -6.5625,0 z m 7.0625,0 0,6.5625 6.5625,0 0,-6.5625 -6.5625,0 z m 6.9375,0 0,6.5625 6.5625,0 0,-6.5625 -6.5625,0 z"
         id="path4073"
         inkscape:connector-curvature="0" />
      <path
         inkscape:connector-curvature="0"
         id="path4075"
         d="m 13.125,1020.4174 0,6.5625 6.5625,0 0,-6.5625 -6.5625,0 z m 7.0625,0 0,6.5625 6.59375,0 0,-6.5625 -6.59375,0 z m 6.96875,0 0,6.5625 6.5625,0 0,-6.5625 -6.5625,0 z m 6.9375,0 0,6.5625 6.5625,0 0,-6.5625 -6.5625,0 z m 7.0625,0 0,6.5625 6.5625,0 0,-6.5625 -6.5625,0 z m 6.9375,0 0,6.5625 6.59375,0 0,-6.5625 -6.59375,0 z m 6.96875,0 0,6.5625 6.5625,0 0,-6.5625 -6.5625,0 z m 7.0625,0 0,6.5625 6.5625,0 0,-6.5625 -6.5625,0 z m 6.9375,0 0,6.5625 6.5625,0 0,-6.5625 -6.5625,0 z"
         style="fill:#8c8c8c;fill-opacity:1;stroke:#000000;stroke-width:1;stroke-linecap:round;stroke-linejoin:round;stroke-miterlimit:4;stroke-opacity:1;stroke-dasharray:none" />
      <path
         inkscape:connector-curvature="0"
         id="path4077"
         d="m 13.125,1026.9833 0,6.5625 6.5625,0 0,-6.5625 -6.5625,0 z m 7.0625,0 0,6.5625 6.59375,0 0,-6.5625 -6.59375,0 z m 6.96875,0 0,6.5625 6.5625,0 0,-6.5625 -6.5625,0 z m 6.9375,0 0,6.5625 6.5625,0 0,-6.5625 -6.5625,0 z m 7.0625,0 0,6.5625 6.5625,0 0,-6.5625 -6.5625,0 z m 6.9375,0 0,6.5625 6.59375,0 0,-6.5625 -6.59375,0 z m 6.96875,0 0,6.5625 6.5625,0 0,-6.5625 -6.5625,0 z m 7.0625,0 0,6.5625 6.5625,0 0,-6.5625 -6.5625,0 z m 6.9375,0 0,6.5625 6.5625,0 0,-6.5625 -6.5625,0 z"
         style="fill:#c3e000;fill-opacity:1;stroke:#000000;stroke-width:1;stroke-linecap:round;stroke-linejoin:round;stroke-miterlimit:4;stroke-opacity:1;stroke-dasharray:none" />
    </g>
    <g
       id="g3923"
       transform="matrix(1,0,0.42550669,1,-427.43079,15.404826)">
      <rect
         ry="0"
         y="980.71423"
         x="13.104601"
         height="52.984577"
         width="62.697594"
         id="rect2985"
         style="fill:none;stroke:#000000;stroke-width:0.99622136;stroke-miterlimit:4;stroke-opacity:1;stroke-dasharray:none" />
      <path
         id="rect3755"
         transform="translate(0,952.36218)"
         d="m 13.125,28.40625 0,6.5625 6.5625,0 0,-6.5625 -6.5625,0 z m 7.0625,0 0,6.5625 6.59375,0 0,-6.5625 -6.59375,0 z m 6.96875,0 0,6.5625 6.5625,0 0,-6.5625 -6.5625,0 z m 6.9375,0 0,6.5625 6.5625,0 0,-6.5625 -6.5625,0 z m 7.0625,0 0,6.5625 6.5625,0 0,-6.5625 -6.5625,0 z m 6.9375,0 0,6.5625 6.59375,0 0,-6.5625 -6.59375,0 z m 6.96875,0 0,6.5625 6.5625,0 0,-6.5625 -6.5625,0 z m 7.0625,0 0,6.5625 6.5625,0 0,-6.5625 -6.5625,0 z m 6.9375,0 0,6.5625 6.5625,0 0,-6.5625 -6.5625,0 z"
         style="fill:#c3e000;fill-opacity:1;stroke:#000000;stroke-width:1;stroke-linecap:round;stroke-linejoin:round;stroke-miterlimit:4;stroke-opacity:1;stroke-dasharray:none"
         inkscape:connector-curvature="0" />
      <path
         inkscape:connector-curvature="0"
         id="rect3773"
         d="m 13.125,1000.5931 0,6.5625 6.5625,0 0,-6.5625 -6.5625,0 z m 7.0625,0 0,6.5625 6.59375,0 0,-6.5625 -6.59375,0 z m 6.96875,0 0,6.5625 6.5625,0 0,-6.5625 -6.5625,0 z m 6.9375,0 0,6.5625 6.5625,0 0,-6.5625 -6.5625,0 z m 7.0625,0 0,6.5625 6.5625,0 0,-6.5625 -6.5625,0 z m 6.9375,0 0,6.5625 6.59375,0 0,-6.5625 -6.59375,0 z m 6.96875,0 0,6.5625 6.5625,0 0,-6.5625 -6.5625,0 z m 7.0625,0 0,6.5625 6.5625,0 0,-6.5625 -6.5625,0 z m 6.9375,0 0,6.5625 6.5625,0 0,-6.5625 -6.5625,0 z"
         style="fill:#c3e000;fill-opacity:1;stroke:#000000;stroke-width:1;stroke-linecap:round;stroke-linejoin:round;stroke-miterlimit:4;stroke-opacity:1;stroke-dasharray:none" />
      <path
         inkscape:connector-curvature="0"
         style="fill:#00a3e0;fill-opacity:1;stroke:#000000;stroke-width:1;stroke-linecap:round;stroke-linejoin:round;stroke-miterlimit:4;stroke-opacity:1;stroke-dasharray:none"
         d="m 13.125,987.4607 0,6.5625 6.5625,0 0,-6.5625 -6.5625,0 z m 7.0625,0 0,6.5625 6.59375,0 0,-6.5625 -6.59375,0 z m 6.96875,0 0,6.5625 6.5625,0 0,-6.5625 -6.5625,0 z m 6.9375,0 0,6.5625 6.5625,0 0,-6.5625 -6.5625,0 z m 7.0625,0 0,6.5625 6.5625,0 0,-6.5625 -6.5625,0 z m 6.9375,0 0,6.5625 6.59375,0 0,-6.5625 -6.59375,0 z m 6.96875,0 0,6.5625 6.5625,0 0,-6.5625 -6.5625,0 z m 7.0625,0 0,6.5625 6.5625,0 0,-6.5625 -6.5625,0 z m 6.9375,0 0,6.5625 6.5625,0 0,-6.5625 -6.5625,0 z"
         id="path3793" />
      <path
         id="path3795"
         d="m 13.125,994.02669 0,6.56251 6.5625,0 0,-6.56251 -6.5625,0 z m 7.0625,0 0,6.56251 6.59375,0 0,-6.56251 -6.59375,0 z m 6.96875,0 0,6.56251 6.5625,0 0,-6.56251 -6.5625,0 z m 6.9375,0 0,6.56251 6.5625,0 0,-6.56251 -6.5625,0 z m 7.0625,0 0,6.56251 6.5625,0 0,-6.56251 -6.5625,0 z m 6.9375,0 0,6.56251 6.59375,0 0,-6.56251 -6.59375,0 z m 6.96875,0 0,6.56251 6.5625,0 0,-6.56251 -6.5625,0 z m 7.0625,0 0,6.56251 6.5625,0 0,-6.56251 -6.5625,0 z m 6.9375,0 0,6.56251 6.5625,0 0,-6.56251 -6.5625,0 z"
         style="fill:#00a3e0;fill-opacity:1;stroke:#000000;stroke-width:1;stroke-linecap:round;stroke-linejoin:round;stroke-miterlimit:4;stroke-opacity:1;stroke-dasharray:none"
         inkscape:connector-curvature="0" />
      <path
         style="fill:#8c8c8c;fill-opacity:1;stroke:#000000;stroke-width:1;stroke-linecap:round;stroke-linejoin:round;stroke-miterlimit:4;stroke-opacity:1;stroke-dasharray:none"
         d="m 13.125,1007.0328 0,6.5625 6.5625,0 0,-6.5625 -6.5625,0 z m 7.0625,0 0,6.5625 6.59375,0 0,-6.5625 -6.59375,0 z m 6.96875,0 0,6.5625 6.5625,0 0,-6.5625 -6.5625,0 z m 6.9375,0 0,6.5625 6.5625,0 0,-6.5625 -6.5625,0 z m 7.0625,0 0,6.5625 6.5625,0 0,-6.5625 -6.5625,0 z m 6.9375,0 0,6.5625 6.59375,0 0,-6.5625 -6.59375,0 z m 6.96875,0 0,6.5625 6.5625,0 0,-6.5625 -6.5625,0 z m 7.0625,0 0,6.5625 6.5625,0 0,-6.5625 -6.5625,0 z m 6.9375,0 0,6.5625 6.5625,0 0,-6.5625 -6.5625,0 z"
         id="path3797"
         inkscape:connector-curvature="0" />
      <path
         inkscape:connector-curvature="0"
         id="path3799"
         d="m 13.125,1013.7251 0,6.5625 6.5625,0 0,-6.5625 -6.5625,0 z m 7.0625,0 0,6.5625 6.59375,0 0,-6.5625 -6.59375,0 z m 6.96875,0 0,6.5625 6.5625,0 0,-6.5625 -6.5625,0 z m 6.9375,0 0,6.5625 6.5625,0 0,-6.5625 -6.5625,0 z m 7.0625,0 0,6.5625 6.5625,0 0,-6.5625 -6.5625,0 z m 6.9375,0 0,6.5625 6.59375,0 0,-6.5625 -6.59375,0 z m 6.96875,0 0,6.5625 6.5625,0 0,-6.5625 -6.5625,0 z m 7.0625,0 0,6.5625 6.5625,0 0,-6.5625 -6.5625,0 z m 6.9375,0 0,6.5625 6.5625,0 0,-6.5625 -6.5625,0 z"
         style="fill:#8c8c8c;fill-opacity:1;stroke:#000000;stroke-width:1;stroke-linecap:round;stroke-linejoin:round;stroke-miterlimit:4;stroke-opacity:1;stroke-dasharray:none" />
      <path
         style="fill:#8c8c8c;fill-opacity:1;stroke:#000000;stroke-width:1;stroke-linecap:round;stroke-linejoin:round;stroke-miterlimit:4;stroke-opacity:1;stroke-dasharray:none"
         d="m 13.125,1020.4174 0,6.5625 6.5625,0 0,-6.5625 -6.5625,0 z m 7.0625,0 0,6.5625 6.59375,0 0,-6.5625 -6.59375,0 z m 6.96875,0 0,6.5625 6.5625,0 0,-6.5625 -6.5625,0 z m 6.9375,0 0,6.5625 6.5625,0 0,-6.5625 -6.5625,0 z m 7.0625,0 0,6.5625 6.5625,0 0,-6.5625 -6.5625,0 z m 6.9375,0 0,6.5625 6.59375,0 0,-6.5625 -6.59375,0 z m 6.96875,0 0,6.5625 6.5625,0 0,-6.5625 -6.5625,0 z m 7.0625,0 0,6.5625 6.5625,0 0,-6.5625 -6.5625,0 z m 6.9375,0 0,6.5625 6.5625,0 0,-6.5625 -6.5625,0 z"
         id="path3801"
         inkscape:connector-curvature="0" />
      <path
         style="fill:#c3e000;fill-opacity:1;stroke:#000000;stroke-width:1;stroke-linecap:round;stroke-linejoin:round;stroke-miterlimit:4;stroke-opacity:1;stroke-dasharray:none"
         d="m 13.125,1026.9833 0,6.5625 6.5625,0 0,-6.5625 -6.5625,0 z m 7.0625,0 0,6.5625 6.59375,0 0,-6.5625 -6.59375,0 z m 6.96875,0 0,6.5625 6.5625,0 0,-6.5625 -6.5625,0 z m 6.9375,0 0,6.5625 6.5625,0 0,-6.5625 -6.5625,0 z m 7.0625,0 0,6.5625 6.5625,0 0,-6.5625 -6.5625,0 z m 6.9375,0 0,6.5625 6.59375,0 0,-6.5625 -6.59375,0 z m 6.96875,0 0,6.5625 6.5625,0 0,-6.5625 -6.5625,0 z m 7.0625,0 0,6.5625 6.5625,0 0,-6.5625 -6.5625,0 z m 6.9375,0 0,6.5625 6.5625,0 0,-6.5625 -6.5625,0 z"
         id="path3803"
         inkscape:connector-curvature="0" />
    </g>
    <rect
       transform="matrix(1,0,0.0149282,0.99988857,0,0)"
       ry="0"
       y="989.1582"
       x="-101.18192"
       height="52.990482"
       width="62.697594"
       id="rect4081"
       style="fill:#ffffff;fill-opacity:0.30980392;stroke:#000000;stroke-width:0.99627692;stroke-miterlimit:4;stroke-opacity:1;stroke-dasharray:none" />
    <rect
       style="fill:#a06600;fill-opacity:1;stroke:#000000;stroke-width:1.00005579;stroke-linecap:round;stroke-linejoin:round;stroke-miterlimit:4;stroke-opacity:1;stroke-dasharray:none"
       id="rect4085"
       width="31.567266"
       height="6.5667233"
       x="-97.619049"
       y="995.39954"
       transform="matrix(1,0,0.0149282,0.99988857,0,0)"
       ry="3.2833617"
       rx="2.1428571" />
    <path
       sodipodi:type="arc"
       style="fill:#ffffff;fill-opacity:1;stroke:#000000;stroke-width:0.72791398;stroke-linecap:round;stroke-linejoin:round;stroke-miterlimit:4;stroke-opacity:1;stroke-dasharray:none"
       id="path4087"
       sodipodi:cx="-43.214287"
       sodipodi:cy="38.169643"
       sodipodi:rx="1.6071428"
       sodipodi:ry="2.7037702"
       d="m -41.607144,38.169643 a 1.6071428,2.7037702 0 1 1 -3.214286,0 1.6071428,2.7037702 0 1 1 3.214286,0 z"
       transform="matrix(1.5784855,0,0.01785069,1.1956368,13.912758,952.89531)" />
    <path
       transform="matrix(0.69672101,0,0.00787904,0.52773705,-23.71675,978.38881)"
       d="m -41.607144,38.169643 a 1.6071428,2.7037702 0 1 1 -3.214286,0 1.6071428,2.7037702 0 1 1 3.214286,0 z"
       sodipodi:ry="2.7037702"
       sodipodi:rx="1.6071428"
       sodipodi:cy="38.169643"
       sodipodi:cx="-43.214287"
       id="path4089"
       style="fill:#ffffff;fill-opacity:1;stroke:#a06600;stroke-width:1.64915609;stroke-linecap:round;stroke-linejoin:round;stroke-miterlimit:4;stroke-opacity:1;stroke-dasharray:none"
       sodipodi:type="arc" />
    <rect
       rx="2.1428571"
       ry="3.2833617"
       transform="matrix(1,0,0.0149282,0.99988857,0,0)"
       y="1002.3645"
       x="-76.19043"
       height="6.5667233"
       width="31.567266"
       id="rect4093"
       style="fill:#a06600;fill-opacity:1;stroke:#000000;stroke-width:1.00005579;stroke-linecap:round;stroke-linejoin:round;stroke-miterlimit:4;stroke-opacity:1;stroke-dasharray:none" />
    <path
       transform="matrix(1.5784855,0,0.01785069,1.1956368,35.445312,959.8596)"
       d="m -41.607144,38.169643 a 1.6071428,2.7037702 0 1 1 -3.214286,0 1.6071428,2.7037702 0 1 1 3.214286,0 z"
       sodipodi:ry="2.7037702"
       sodipodi:rx="1.6071428"
       sodipodi:cy="38.169643"
       sodipodi:cx="-43.214287"
       id="path4095"
       style="fill:#ffffff;fill-opacity:1;stroke:#000000;stroke-width:0.72791398;stroke-linecap:round;stroke-linejoin:round;stroke-miterlimit:4;stroke-opacity:1;stroke-dasharray:none"
       sodipodi:type="arc" />
    <path
       sodipodi:type="arc"
       style="fill:#ffffff;fill-opacity:1;stroke:#a06600;stroke-width:1.64915609;stroke-linecap:round;stroke-linejoin:round;stroke-miterlimit:4;stroke-opacity:1;stroke-dasharray:none"
       id="path4097"
       sodipodi:cx="-43.214287"
       sodipodi:cy="38.169643"
       sodipodi:rx="1.6071428"
       sodipodi:ry="2.7037702"
       d="m -41.607144,38.169643 a 1.6071428,2.7037702 0 1 1 -3.214286,0 1.6071428,2.7037702 0 1 1 3.214286,0 z"
       transform="matrix(0.69672101,0,0.00787904,0.52773705,-2.1841962,985.3531)" />
    <rect
       ry="1.4196907"
       rx="0.4946855"
       y="1034.1663"
       x="-88.126953"
       height="1.4196907"
       width="2.7960489"
       id="rect4101"
       style="fill:#000000;fill-opacity:1;stroke:none"
       transform="matrix(1,0,0.01492817,0.99988857,0,0)" />
    <rect
       style="fill:#000000;fill-opacity:1;stroke:none"
       id="rect4103"
       width="2.7960489"
       height="1.4196907"
       x="-92.858734"
       y="1034.1663"
       rx="0.4946855"
       ry="1.4196907"
       transform="matrix(1,0,0.01492817,0.99988857,0,0)" />
    <rect
       style="fill:#000000;fill-opacity:1;stroke:none"
       id="rect4105"
       width="2.7960489"
       height="1.4196907"
       x="-88.126953"
       y="1028.2294"
       rx="0.4946855"
       ry="1.4196907"
       transform="matrix(1,0,0.01492817,0.99988857,0,0)" />
    <rect
       ry="1.4196907"
       rx="0.4946855"
       y="1028.2294"
       x="-92.858734"
       height="1.4196907"
       width="2.7960489"
       id="rect4107"
       style="fill:#000000;fill-opacity:1;stroke:none"
       transform="matrix(1,0,0.01492817,0.99988857,0,0)" />
    <rect
       ry="2.8393815"
       rx="2.4063711"
       y="1029.0469"
       x="-93.676056"
       height="5.6787629"
       width="8.9473562"
       id="rect4109"
       style="fill:#0087e6;fill-opacity:1;stroke:#000000;stroke-width:0.68137878;stroke-opacity:1"
       transform="matrix(1,0,0.01492817,0.99988857,0,0)" />
    <rect
       ry="0.70984524"
       rx="2.4063711"
       y="1030.2083"
       x="-88.858246"
       height="3.3986535"
       width="2.3228714"
       id="rect4111"
       style="fill:#000000;fill-opacity:1;stroke:none"
       transform="matrix(1,0,0.01492817,0.99988857,0,0)" />
    <rect
       style="fill:#000000;fill-opacity:1;stroke:none"
       id="rect4115"
       width="2.7960489"
       height="1.4196907"
       x="62.95636"
       y="1026.6654"
       rx="0.4946855"
       ry="1.4196907"
       transform="matrix(-1,0,0.01492817,0.99988857,0,0)" />
    <rect
       ry="1.4196907"
       rx="0.4946855"
       y="1026.6654"
       x="58.224579"
       height="1.4196907"
       width="2.7960489"
       id="rect4117"
       style="fill:#000000;fill-opacity:1;stroke:none"
       transform="matrix(-1,0,0.01492817,0.99988857,0,0)" />
    <rect
       ry="1.4196907"
       rx="0.4946855"
       y="1020.7285"
       x="62.95636"
       height="1.4196907"
       width="2.7960489"
       id="rect4119"
       style="fill:#000000;fill-opacity:1;stroke:none"
       transform="matrix(-1,0,0.01492817,0.99988857,0,0)" />
    <rect
       style="fill:#000000;fill-opacity:1;stroke:none"
       id="rect4121"
       width="2.7960489"
       height="1.4196907"
       x="58.224579"
       y="1020.7285"
       rx="0.4946855"
       ry="1.4196907"
       transform="matrix(-1,0,0.01492817,0.99988857,0,0)" />
    <rect
       style="fill:#0087e6;fill-opacity:1;stroke:#000000;stroke-width:0.68137878;stroke-opacity:1"
       id="rect4123"
       width="8.9473562"
       height="5.6787629"
       x="57.407257"
       y="1021.546"
       rx="2.4063711"
       ry="2.8393815"
       transform="matrix(-1,0,0.01492817,0.99988857,0,0)" />
    <rect
       style="fill:#000000;fill-opacity:1;stroke:none"
       id="rect4125"
       width="2.3228714"
       height="3.3986535"
       x="62.225067"
       y="1022.7075"
       rx="2.4063711"
       ry="0.70984524"
       transform="matrix(-1,0,0.01492817,0.99988857,0,0)" />
    <rect
       style="fill:#ffffff;fill-opacity:0.30980392;stroke:#000000;stroke-width:1.0385406;stroke-miterlimit:4;stroke-opacity:1;stroke-dasharray:none"
       id="rect3806"
       width="62.697594"
       height="57.58173"
       x="-413.68375"
       y="1074.8617"
       ry="0"
       transform="matrix(1,0,0.39153553,0.92016299,0,0)" />
    <rect
       rx="2.1428571"
       ry="3.5678415"
       transform="matrix(1,0,0.39153553,0.92016299,0,0)"
       y="1081.6438"
       x="-410.12082"
       height="7.1356831"
       width="31.567266"
       id="rect3824"
       style="fill:#a06600;fill-opacity:1;stroke:#000000;stroke-width:1.04247975;stroke-linecap:round;stroke-linejoin:round;stroke-miterlimit:4;stroke-opacity:1;stroke-dasharray:none" />
    <path
       transform="matrix(1.5784855,0,0.50875148,1.1956368,92.647721,952.89531)"
       d="m -41.607144,38.169643 a 1.6071428,2.7037702 0 1 1 -3.214286,0 1.6071428,2.7037702 0 1 1 3.214286,0 z"
       sodipodi:ry="2.7037702"
       sodipodi:rx="1.6071428"
       sodipodi:cy="38.169643"
       sodipodi:cx="-43.214287"
       id="path3826"
       style="fill:#ffffff;fill-opacity:1;stroke:#000000;stroke-width:0.72791398;stroke-linecap:round;stroke-linejoin:round;stroke-miterlimit:4;stroke-opacity:1;stroke-dasharray:none"
       sodipodi:type="arc" />
    <path
       sodipodi:type="arc"
       style="fill:#ffffff;fill-opacity:1;stroke:#a06600;stroke-width:1.64915609;stroke-linecap:round;stroke-linejoin:round;stroke-miterlimit:4;stroke-opacity:1;stroke-dasharray:none"
       id="path3828"
       sodipodi:cx="-43.214287"
       sodipodi:cy="38.169643"
       sodipodi:rx="1.6071428"
       sodipodi:ry="2.7037702"
       d="m -41.607144,38.169643 a 1.6071428,2.7037702 0 1 1 -3.214286,0 1.6071428,2.7037702 0 1 1 3.214286,0 z"
       transform="matrix(0.69672101,0,0.22455566,0.52773705,65.485254,978.38881)" />
    <rect
       style="fill:#a06600;fill-opacity:1;stroke:#000000;stroke-width:1.04247975;stroke-linecap:round;stroke-linejoin:round;stroke-miterlimit:4;stroke-opacity:1;stroke-dasharray:none"
       id="rect3837"
       width="31.567266"
       height="7.1356831"
       x="-388.69223"
       y="1089.2123"
       transform="matrix(1,0,0.39153553,0.92016299,0,0)"
       ry="3.5678415"
       rx="2.1428571" />
    <path
       sodipodi:type="arc"
       style="fill:#ffffff;fill-opacity:1;stroke:#000000;stroke-width:0.72791398;stroke-linecap:round;stroke-linejoin:round;stroke-miterlimit:4;stroke-opacity:1;stroke-dasharray:none"
       id="path3839"
       sodipodi:cx="-43.214287"
       sodipodi:cy="38.169643"
       sodipodi:rx="1.6071428"
       sodipodi:ry="2.7037702"
       d="m -41.607144,38.169643 a 1.6071428,2.7037702 0 1 1 -3.214286,0 1.6071428,2.7037702 0 1 1 3.214286,0 z"
       transform="matrix(1.5784855,0,0.50875148,1.1956368,117.03965,959.8596)" />
    <path
       transform="matrix(0.69672101,0,0.22455566,0.52773705,89.877184,985.3531)"
       d="m -41.607144,38.169643 a 1.6071428,2.7037702 0 1 1 -3.214286,0 1.6071428,2.7037702 0 1 1 3.214286,0 z"
       sodipodi:ry="2.7037702"
       sodipodi:rx="1.6071428"
       sodipodi:cy="38.169643"
       sodipodi:cx="-43.214287"
       id="path3841"
       style="fill:#ffffff;fill-opacity:1;stroke:#a06600;stroke-width:1.64915609;stroke-linecap:round;stroke-linejoin:round;stroke-miterlimit:4;stroke-opacity:1;stroke-dasharray:none"
       sodipodi:type="arc" />
    <rect
       style="fill:#000000;fill-opacity:1;stroke:none"
       id="rect3855"
       width="2.7960489"
       height="1.5426968"
       x="-400.62875"
       y="1123.7694"
       rx="0.4946855"
       ry="1.5426968"
       transform="matrix(1,0,0.39153551,0.920163,0,0)" />
    <rect
       ry="1.5426968"
       rx="0.4946855"
       y="1123.7694"
       x="-405.36053"
       height="1.5426968"
       width="2.7960489"
       id="rect3857"
       style="fill:#000000;fill-opacity:1;stroke:none"
       transform="matrix(1,0,0.39153551,0.920163,0,0)" />
    <rect
       ry="1.5426968"
       rx="0.4946855"
       y="1117.3181"
       x="-400.62875"
       height="1.5426968"
       width="2.7960489"
       id="rect3853"
       style="fill:#000000;fill-opacity:1;stroke:none"
       transform="matrix(1,0,0.39153551,0.920163,0,0)" />
    <rect
       style="fill:#000000;fill-opacity:1;stroke:none"
       id="rect3847"
       width="2.7960489"
       height="1.5426968"
       x="-405.36053"
       y="1117.3181"
       rx="0.4946855"
       ry="1.5426968"
       transform="matrix(1,0,0.39153551,0.920163,0,0)" />
    <rect
       style="fill:#0087e6;fill-opacity:1;stroke:#000000;stroke-width:0.71028399;stroke-opacity:1"
       id="rect3845"
       width="8.9473562"
       height="6.1707873"
       x="-406.17783"
       y="1118.2064"
       rx="2.4063711"
       ry="3.0853937"
       transform="matrix(1,0,0.39153551,0.920163,0,0)" />
    <rect
       style="fill:#000000;fill-opacity:1;stroke:none"
       id="rect3851"
       width="2.3228714"
       height="3.6931226"
       x="-401.36005"
       y="1119.4685"
       rx="2.4063711"
       ry="0.7713483"
       transform="matrix(1,0,0.39153551,0.920163,0,0)" />
    <rect
       ry="1.5426968"
       rx="0.4946855"
       y="1115.6187"
       x="375.45813"
       height="1.5426968"
       width="2.7960489"
       id="rect3877"
       style="fill:#000000;fill-opacity:1;stroke:none"
       transform="matrix(-1,0,0.39153551,0.920163,0,0)" />
    <rect
       style="fill:#000000;fill-opacity:1;stroke:none"
       id="rect3879"
       width="2.7960489"
       height="1.5426968"
       x="370.72638"
       y="1115.6187"
       rx="0.4946855"
       ry="1.5426968"
       transform="matrix(-1,0,0.39153551,0.920163,0,0)" />
    <rect
       style="fill:#000000;fill-opacity:1;stroke:none"
       id="rect3881"
       width="2.7960489"
       height="1.5426968"
       x="375.45813"
       y="1109.1674"
       rx="0.4946855"
       ry="1.5426968"
       transform="matrix(-1,0,0.39153551,0.920163,0,0)" />
    <rect
       ry="1.5426968"
       rx="0.4946855"
       y="1109.1674"
       x="370.72638"
       height="1.5426968"
       width="2.7960489"
       id="rect3883"
       style="fill:#000000;fill-opacity:1;stroke:none"
       transform="matrix(-1,0,0.39153551,0.920163,0,0)" />
    <rect
       ry="3.0853937"
       rx="2.4063711"
       y="1110.0557"
       x="369.90906"
       height="6.1707873"
       width="8.9473562"
       id="rect3885"
       style="fill:#0087e6;fill-opacity:1;stroke:#000000;stroke-width:0.71028399;stroke-opacity:1"
       transform="matrix(-1,0,0.39153551,0.920163,0,0)" />
    <rect
       ry="0.7713483"
       rx="2.4063711"
       y="1111.3177"
       x="374.72687"
       height="3.6931226"
       width="2.3228714"
       id="rect3887"
       style="fill:#000000;fill-opacity:1;stroke:none"
       transform="matrix(-1,0,0.39153551,0.920163,0,0)" />
    <rect
       transform="matrix(1,0,0.39153551,0.920163,0,0)"
       ry="0"
       y="1067.6814"
       x="-406.18372"
       height="57.58173"
       width="62.697598"
       id="rect3961"
       style="fill:#ffffff;fill-opacity:0.30980392;stroke:#000000;stroke-width:1.0385406;stroke-miterlimit:4;stroke-opacity:1;stroke-dasharray:none" />
    <g
       id="g4054"
       transform="matrix(0.34642859,0,0.14740768,0.34642859,-87.61498,672.79932)">
      <path
         style="fill:#a3f226;fill-opacity:1;stroke:#000000;stroke-opacity:1"
         d="m 10.749778,1027.3935 0,2 -1.9830426,0 0,12 0.030985,0 1.7041776,0 0.278865,0 0,2 8.892709,0 0,-2 0.09295,0 1.890088,0 0.03099,0 0,-12 -0.03099,0 -1.890088,0 -0.09295,0 0,-2 -8.923694,0 z m -1.9830426,15.9687 0,0.031 0.030985,0 0,-0.031 -0.030985,0 z m 12.8897796,0 0,0.031 0.03099,0 0,-0.031 -0.03099,0 z"
         id="rect2996"
         inkscape:connector-curvature="0" />
      <path
         style="fill:#4a7212;fill-opacity:1;stroke:#000000;stroke-opacity:1"
         d="m 4.6980652,1027.3898 0,2 -1.9687499,0 0,2 1.9687499,0 0,4 2,0 0.03125,0 2.0625,0 0,-2 3.9374998,0 0,-4 -3.9687498,0 0,4 -2.03125,0 0,-6 -2.03125,0 z m 8.0624998,0 0,2 2.96875,0 0,-2 -2.96875,0 z m 10.96875,0 0,6 -2,0 0,-4 -3.96875,0 0,4 3.90625,0 0,2 2.0625,0 0.03125,0 2,0 0,-4 1.96875,0 0,-2 -1.96875,0 0,-2 -2.03125,0 z m -12.96875,8 0,4 1.96875,0 0,2 2,0 0,-2 -1.96875,0 0,-4 -2,0 z m 1.96875,6 -2,0 0,2 2,0 0,-2 z m -2,0 0,-2 -1.9062498,0 0,-2 -2.0625,0 -0.03125,0 -2,0 0,5.0313 -1.9687499,0 0,2 1.9687499,0 0,2 2.03125,0 0,-7.0313 1.96875,0 0,2 1.9999998,0 z m 10.9375,-4 0,2 -1.90625,0 0,2 2,0 0,-2 1.96875,0 0,7.0313 2.03125,0 0,-2 1.96875,0 0,-2 -1.96875,0 0,-5.0313 -2,0 -0.03125,0 -2.0625,0 z m -3.9375,4 0,2 2,0 0,-2 -2,0 z"
         id="rect3783"
         inkscape:connector-curvature="0" />
      <path
         style="fill:#d137df;fill-opacity:1;stroke:#000000;stroke-opacity:1"
         d="m 8.7605652,1029.3898 0,2 1.9999998,0 0,-2 -1.9999998,0 z m 10.9687498,0 0,2 2,0 0,-2 -2,0 z"
         id="rect3772"
         inkscape:connector-curvature="0" />
    </g>
    <g
       transform="matrix(0.34642859,0,0.00517212,0.34642859,-51.349013,672.79932)"
       id="g4129">
      <path
         inkscape:connector-curvature="0"
         id="path4131"
         d="m 10.749778,1027.3935 0,2 -1.9830426,0 0,12 0.030985,0 1.7041776,0 0.278865,0 0,2 8.892709,0 0,-2 0.09295,0 1.890088,0 0.03099,0 0,-12 -0.03099,0 -1.890088,0 -0.09295,0 0,-2 -8.923694,0 z m -1.9830426,15.9687 0,0.031 0.030985,0 0,-0.031 -0.030985,0 z m 12.8897796,0 0,0.031 0.03099,0 0,-0.031 -0.03099,0 z"
         style="fill:#a3f226;fill-opacity:1;stroke:#000000;stroke-opacity:1" />
      <path
         inkscape:connector-curvature="0"
         id="path4133"
         d="m 4.6980652,1027.3898 0,2 -1.9687499,0 0,2 1.9687499,0 0,4 2,0 0.03125,0 2.0625,0 0,-2 3.9374998,0 0,-4 -3.9687498,0 0,4 -2.03125,0 0,-6 -2.03125,0 z m 8.0624998,0 0,2 2.96875,0 0,-2 -2.96875,0 z m 10.96875,0 0,6 -2,0 0,-4 -3.96875,0 0,4 3.90625,0 0,2 2.0625,0 0.03125,0 2,0 0,-4 1.96875,0 0,-2 -1.96875,0 0,-2 -2.03125,0 z m -12.96875,8 0,4 1.96875,0 0,2 2,0 0,-2 -1.96875,0 0,-4 -2,0 z m 1.96875,6 -2,0 0,2 2,0 0,-2 z m -2,0 0,-2 -1.9062498,0 0,-2 -2.0625,0 -0.03125,0 -2,0 0,5.0313 -1.9687499,0 0,2 1.9687499,0 0,2 2.03125,0 0,-7.0313 1.96875,0 0,2 1.9999998,0 z m 10.9375,-4 0,2 -1.90625,0 0,2 2,0 0,-2 1.96875,0 0,7.0313 2.03125,0 0,-2 1.96875,0 0,-2 -1.96875,0 0,-5.0313 -2,0 -0.03125,0 -2.0625,0 z m -3.9375,4 0,2 2,0 0,-2 -2,0 z"
         style="fill:#4a7212;fill-opacity:1;stroke:#000000;stroke-opacity:1" />
      <path
         inkscape:connector-curvature="0"
         id="path4135"
         d="m 8.7605652,1029.3898 0,2 1.9999998,0 0,-2 -1.9999998,0 z m 10.9687498,0 0,2 2,0 0,-2 -2,0 z"
         style="fill:#d137df;fill-opacity:1;stroke:#000000;stroke-opacity:1" />
    </g>
    <rect
       style="fill:#ffffff;fill-opacity:0.30980392;stroke:#000000;stroke-width:0.99627692;stroke-miterlimit:4;stroke-opacity:1;stroke-dasharray:none"
       id="rect4127"
       width="62.697598"
       height="52.990482"
       x="-93.681946"
       y="982.55042"
       ry="0"
       transform="matrix(1,0,0.01492817,0.99988857,0,0)" />
  </g>
</svg>
