<?xml version="1.0" encoding="UTF-8" standalone="no"?>
<!-- Created with Inkscape (http://www.inkscape.org/) -->

<svg
   xmlns:dc="http://purl.org/dc/elements/1.1/"
   xmlns:cc="http://creativecommons.org/ns#"
   xmlns:rdf="http://www.w3.org/1999/02/22-rdf-syntax-ns#"
   xmlns:svg="http://www.w3.org/2000/svg"
   xmlns="http://www.w3.org/2000/svg"
   xmlns:sodipodi="http://sodipodi.sourceforge.net/DTD/sodipodi-0.dtd"
   xmlns:inkscape="http://www.inkscape.org/namespaces/inkscape"
   width="800"
   height="500"
   id="svg4378"
   version="1.1"
   inkscape:version="0.48.1 r9760"
   sodipodi:docname="MapElements-UML.svg"
   inkscape:export-filename="/home/DATA/SpiderOak/Escuela/FC/SP1/Frogger/doc/img/MapElements-UML.png"
   inkscape:export-xdpi="63"
   inkscape:export-ydpi="63">
  <defs
     id="defs4380" />
  <sodipodi:namedview
     id="base"
     pagecolor="#ffffff"
     bordercolor="#666666"
     borderopacity="1.0"
     inkscape:pageopacity="0.0"
     inkscape:pageshadow="2"
     inkscape:zoom="0.7"
     inkscape:cx="715.50128"
     inkscape:cy="226.0393"
     inkscape:document-units="px"
     inkscape:current-layer="layer1"
     showgrid="false"
     width="800px"
     inkscape:window-width="1280"
     inkscape:window-height="743"
     inkscape:window-x="-4"
     inkscape:window-y="30"
     inkscape:window-maximized="1" />
  <metadata
     id="metadata4383">
    <rdf:RDF>
      <cc:Work
         rdf:about="">
        <dc:format>image/svg+xml</dc:format>
        <dc:type
           rdf:resource="http://purl.org/dc/dcmitype/StillImage" />
        <dc:title />
      </cc:Work>
    </rdf:RDF>
  </metadata>
  <g
     inkscape:label="Layer 1"
     inkscape:groupmode="layer"
     id="layer1"
     transform="translate(0,-552.36218)">
    <rect
       style="fill:#ffffff;fill-opacity:1;stroke:#000000;stroke-width:5;stroke-linecap:round;stroke-linejoin:round;stroke-miterlimit:4;stroke-opacity:1;stroke-dasharray:none"
       id="rect4980"
       width="266.5943"
       height="186.15984"
       x="515.21075"
       y="834.77625" />
    <rect
       style="fill:#ffffff;fill-opacity:1;stroke:#000000;stroke-width:5;stroke-linecap:round;stroke-linejoin:round;stroke-miterlimit:4;stroke-opacity:1;stroke-dasharray:none"
       id="rect4386"
       width="266.5943"
       height="172.28461"
       x="269.70273"
       y="569.71265" />
    <g
       transform="matrix(4.9013924,0,0,4.9013924,-1268.217,494.41911)"
       style="font-size:4px;font-style:normal;font-weight:normal;line-height:125%;letter-spacing:0px;word-spacing:0px;fill:#000000;fill-opacity:1;stroke:none;font-family:Sans"
       id="flowRoot4898">
      <path
         d="m 328.70508,16.445981 0.58789,0 0.74414,1.984375 0.74805,-1.984375 0.58789,0 0,2.916016 -0.38477,0 0,-2.560547 -0.75195,2 -0.39649,0 -0.75195,-2 0,2.560547 -0.38281,0 0,-2.916016"
         style=""
         id="path5194" />
      <path
         d="m 333.13672,18.262387 c -0.29037,1e-6 -0.49154,0.0332 -0.60352,0.09961 -0.11198,0.06641 -0.16797,0.179688 -0.16797,0.339843 0,0.127605 0.0417,0.229167 0.125,0.304688 0.0846,0.07422 0.19922,0.111328 0.34375,0.111328 0.19922,0 0.35873,-0.07031 0.47852,-0.210937 0.12109,-0.141927 0.18164,-0.330078 0.18164,-0.564454 l 0,-0.08008 -0.35742,0 m 0.7168,-0.148437 0,1.248047 -0.35938,0 0,-0.332032 c -0.082,0.132813 -0.18425,0.23112 -0.30664,0.294922 -0.1224,0.0625 -0.27214,0.09375 -0.44922,0.09375 -0.22396,0 -0.40234,-0.0625 -0.53516,-0.1875 -0.13151,-0.126302 -0.19726,-0.294921 -0.19726,-0.505859 0,-0.246093 0.082,-0.43164 0.24609,-0.556641 0.16537,-0.124998 0.41146,-0.187498 0.73828,-0.1875 l 0.50391,0 0,-0.03516 c 0,-0.165363 -0.0547,-0.292967 -0.16406,-0.382812 -0.10808,-0.09114 -0.26042,-0.136717 -0.45703,-0.136719 -0.125,2e-6 -0.24675,0.01498 -0.36524,0.04492 -0.11849,0.02995 -0.23242,0.07487 -0.34179,0.134765 l 0,-0.332031 c 0.13151,-0.05078 0.25911,-0.08854 0.38281,-0.113281 0.1237,-0.02604 0.24414,-0.03906 0.36133,-0.03906 0.3164,3e-6 0.55273,0.08203 0.70898,0.246094 0.15625,0.164064 0.23437,0.412762 0.23438,0.746094"
         style=""
         id="path5196" />
      <path
         d="m 334.94336,19.033872 0,1.160156 -0.36133,0 0,-3.019531 0.36133,0 0,0.332031 c 0.0755,-0.130206 0.17057,-0.226561 0.28516,-0.289063 0.11588,-0.0638 0.2539,-0.0957 0.41406,-0.0957 0.26562,3e-6 0.48112,0.105471 0.64648,0.316407 0.16667,0.210939 0.25,0.488282 0.25,0.832031 0,0.343751 -0.0833,0.621094 -0.25,0.832031 -0.16536,0.210938 -0.38086,0.316406 -0.64648,0.316406 -0.16016,0 -0.29818,-0.03125 -0.41406,-0.09375 -0.11459,-0.0638 -0.20964,-0.160807 -0.28516,-0.291015 m 1.22266,-0.763672 c -10e-6,-0.264322 -0.0547,-0.471353 -0.16407,-0.621094 -0.10807,-0.15104 -0.25716,-0.226561 -0.44726,-0.226562 -0.19011,1e-6 -0.33985,0.07552 -0.44922,0.226562 -0.10807,0.149741 -0.16211,0.356772 -0.16211,0.621094 0,0.264324 0.054,0.472006 0.16211,0.623047 0.10937,0.14974 0.25911,0.224609 0.44922,0.224609 0.1901,0 0.33919,-0.07487 0.44726,-0.224609 0.10938,-0.151041 0.16406,-0.358723 0.16407,-0.623047"
         style=""
         id="path5198" />
      <path
         d="m 337.15039,16.445981 1.84375,0 0,0.332031 -1.44922,0 0,0.863282 1.38867,0 0,0.332031 -1.38867,0 0,1.05664 1.48438,0 0,0.332032 -1.87891,0 0,-2.916016"
         style=""
         id="path5200" />
      <path
         d="m 339.66602,16.322934 0.35937,0 0,3.039063 -0.35937,0 0,-3.039063"
         style=""
         id="path5202" />
      <path
         d="m 342.64648,18.178403 0,0.175781 -1.65234,0 c 0.0156,0.247397 0.0898,0.436199 0.22266,0.566406 0.13411,0.128907 0.32031,0.19336 0.55859,0.19336 0.13802,0 0.27148,-0.01693 0.40039,-0.05078 0.13021,-0.03385 0.25911,-0.08464 0.38672,-0.152344 l 0,0.339844 c -0.12891,0.05469 -0.26107,0.09635 -0.39648,0.125 -0.13542,0.02865 -0.27279,0.04297 -0.41211,0.04297 -0.34896,0 -0.62566,-0.101562 -0.83008,-0.304687 -0.20313,-0.203125 -0.30469,-0.477864 -0.30469,-0.824219 0,-0.358071 0.0963,-0.641925 0.28906,-0.851562 0.19401,-0.210936 0.45508,-0.316404 0.78321,-0.316407 0.29427,3e-6 0.52669,0.09505 0.69726,0.285157 0.17187,0.188803 0.25781,0.445965 0.25781,0.771484 m -0.35937,-0.105469 c -0.003,-0.196613 -0.058,-0.353514 -0.16602,-0.470703 -0.10677,-0.117186 -0.2487,-0.175779 -0.42578,-0.175781 -0.20052,2e-6 -0.36133,0.05664 -0.48242,0.169922 -0.11979,0.113283 -0.1888,0.272788 -0.20703,0.478515 l 1.28125,-0.002"
         style=""
         id="path5204" />
      <path
         d="m 344.93945,17.594419 c 0.0898,-0.161457 0.19727,-0.280597 0.32227,-0.357422 0.125,-0.07682 0.27213,-0.115232 0.4414,-0.115235 0.22787,3e-6 0.40365,0.08008 0.52735,0.240235 0.12369,0.158856 0.18554,0.385418 0.18555,0.679687 l 0,1.320313 -0.36133,0 0,-1.308594 c -10e-6,-0.209634 -0.0371,-0.365233 -0.11133,-0.466797 -0.0742,-0.101561 -0.1875,-0.152342 -0.33984,-0.152344 -0.1862,2e-6 -0.33334,0.06185 -0.44141,0.185547 C 345.05403,17.743509 345,17.912128 345,18.125669 l 0,1.236328 -0.36133,0 0,-1.308594 c 0,-0.210936 -0.0371,-0.366535 -0.11133,-0.466797 -0.0742,-0.101561 -0.1888,-0.152342 -0.34375,-0.152344 -0.18359,2e-6 -0.32942,0.0625 -0.4375,0.1875 -0.10807,0.1237 -0.16211,0.291668 -0.16211,0.503907 l 0,1.236328 -0.36132,0 0,-2.1875 0.36132,0 0,0.339843 c 0.082,-0.134112 0.18034,-0.23307 0.29493,-0.296875 0.11458,-0.0638 0.25065,-0.0957 0.4082,-0.0957 0.15885,3e-6 0.29362,0.04037 0.4043,0.121094 0.11197,0.08073 0.19466,0.197919 0.24804,0.351563"
         style=""
         id="path5206" />
      <path
         d="m 349.00586,18.178403 0,0.175781 -1.65234,0 c 0.0156,0.247397 0.0898,0.436199 0.22265,0.566406 0.13412,0.128907 0.32031,0.19336 0.5586,0.19336 0.13801,0 0.27148,-0.01693 0.40039,-0.05078 0.1302,-0.03385 0.25911,-0.08464 0.38671,-0.152344 l 0,0.339844 c -0.1289,0.05469 -0.26106,0.09635 -0.39648,0.125 -0.13542,0.02865 -0.27279,0.04297 -0.41211,0.04297 -0.34896,0 -0.62565,-0.101562 -0.83008,-0.304687 -0.20312,-0.203125 -0.30468,-0.477864 -0.30468,-0.824219 0,-0.358071 0.0963,-0.641925 0.28906,-0.851562 0.19401,-0.210936 0.45508,-0.316404 0.7832,-0.316407 0.29427,3e-6 0.52669,0.09505 0.69727,0.285157 0.17187,0.188803 0.25781,0.445965 0.25781,0.771484 m -0.35938,-0.105469 c -0.003,-0.196613 -0.0579,-0.353514 -0.16601,-0.470703 -0.10677,-0.117186 -0.2487,-0.175779 -0.42578,-0.175781 -0.20052,2e-6 -0.36133,0.05664 -0.48242,0.169922 -0.1198,0.113283 -0.18881,0.272788 -0.20704,0.478515 l 1.28125,-0.002"
         style=""
         id="path5208" />
      <path
         d="m 351.41406,18.041684 0,1.320313 -0.35937,0 0,-1.308594 c 0,-0.20703 -0.0404,-0.361978 -0.1211,-0.464844 -0.0807,-0.102863 -0.20182,-0.154295 -0.36328,-0.154297 -0.19401,2e-6 -0.347,0.06185 -0.45898,0.185547 -0.11198,0.1237 -0.16797,0.292319 -0.16797,0.50586 l 0,1.236328 -0.36133,0 0,-2.1875 0.36133,0 0,0.339843 c 0.0859,-0.131508 0.18685,-0.229815 0.30273,-0.294921 0.11719,-0.0651 0.25196,-0.09765 0.4043,-0.09766 0.2513,3e-6 0.44141,0.07813 0.57031,0.234375 0.12891,0.15495 0.19336,0.383465 0.19336,0.685547"
         style=""
         id="path5210" />
      <path
         d="m 352.49023,16.553403 0,0.621094 0.74024,0 0,0.279297 -0.74024,0 0,1.1875 c 0,0.178385 0.0241,0.292969 0.0723,0.34375 0.0495,0.05078 0.14909,0.07617 0.29883,0.07617 l 0.36914,0 0,0.300782 -0.36914,0 c -0.27735,0 -0.46875,-0.05143 -0.57422,-0.154297 -0.10547,-0.104167 -0.1582,-0.292969 -0.1582,-0.566406 l 0,-1.1875 -0.26368,0 0,-0.279297 0.26368,0 0,-0.621094 0.36132,0"
         style=""
         id="path5212" />
    </g>
    <g
       transform="matrix(4.9013924,0,0,4.9013924,-1333.7399,525.26978)"
       style="font-size:4px;font-style:normal;font-weight:normal;line-height:125%;letter-spacing:0px;word-spacing:0px;fill:#000000;fill-opacity:1;stroke:none;font-family:Sans"
       id="flowRoot4906">
      <path
         d="m 330.15234,16.854184 0,1.087891 1.08789,0 0,0.332031 -1.08789,0 0,1.087891 -0.32812,0 0,-1.087891 -1.08789,0 0,-0.332031 1.08789,0 0,-1.087891 0.32812,0"
         style=""
         id="path5143" />
      <path
         d="m 333.31445,17.174497 0.35938,0 0,2.1875 -0.35938,0 0,-2.1875 m 0,-0.851563 0.35938,0 0,0.455078 -0.35938,0 0,-0.455078"
         style=""
         id="path5145" />
      <path
         d="m 336.24219,18.041684 0,1.320313 -0.35938,0 0,-1.308594 c 0,-0.20703 -0.0404,-0.361978 -0.12109,-0.464844 -0.0807,-0.102863 -0.20183,-0.154295 -0.36328,-0.154297 -0.19401,2e-6 -0.34701,0.06185 -0.45899,0.185547 -0.11198,0.1237 -0.16797,0.292319 -0.16797,0.50586 l 0,1.236328 -0.36132,0 0,-2.1875 0.36132,0 0,0.339843 c 0.0859,-0.131508 0.18685,-0.229815 0.30274,-0.294921 0.11719,-0.0651 0.25195,-0.09765 0.4043,-0.09766 0.2513,3e-6 0.4414,0.07813 0.57031,0.234375 0.1289,0.15495 0.19336,0.383465 0.19336,0.685547"
         style=""
         id="path5147" />
      <path
         d="m 337.31836,16.553403 0,0.621094 0.74023,0 0,0.279297 -0.74023,0 0,1.1875 c 0,0.178385 0.0241,0.292969 0.0723,0.34375 0.0495,0.05078 0.14909,0.07617 0.29883,0.07617 l 0.36914,0 0,0.300782 -0.36914,0 c -0.27734,0 -0.46875,-0.05143 -0.57422,-0.154297 -0.10546,-0.104167 -0.1582,-0.292969 -0.1582,-0.566406 l 0,-1.1875 -0.26367,0 0,-0.279297 0.26367,0 0,-0.621094 0.36133,0"
         style=""
         id="path5149" />
      <path
         d="m 341.625,17.174497 -0.79102,1.064453 0.83204,1.123047 -0.42383,0 -0.63672,-0.859375 -0.63672,0.859375 -0.42383,0 0.84961,-1.144532 -0.77734,-1.042968 0.42383,0 0.58007,0.779297 0.58008,-0.779297 0.42383,0"
         style=""
         id="path5151" />
      <path
         d="m 330.15234,21.854184 0,1.087891 1.08789,0 0,0.332031 -1.08789,0 0,1.087891 -0.32812,0 0,-1.087891 -1.08789,0 0,-0.332031 1.08789,0 0,-1.087891 0.32812,0"
         style=""
         id="path5153" />
      <path
         d="m 333.31445,22.174497 0.35938,0 0,2.1875 -0.35938,0 0,-2.1875 m 0,-0.851563 0.35938,0 0,0.455078 -0.35938,0 0,-0.455078"
         style=""
         id="path5155" />
      <path
         d="m 336.24219,23.041684 0,1.320313 -0.35938,0 0,-1.308594 c 0,-0.20703 -0.0404,-0.361978 -0.12109,-0.464844 -0.0807,-0.102863 -0.20183,-0.154295 -0.36328,-0.154297 -0.19401,2e-6 -0.34701,0.06185 -0.45899,0.185547 -0.11198,0.1237 -0.16797,0.292319 -0.16797,0.50586 l 0,1.236328 -0.36132,0 0,-2.1875 0.36132,0 0,0.339843 c 0.0859,-0.131508 0.18685,-0.229815 0.30274,-0.294921 0.11719,-0.0651 0.25195,-0.09765 0.4043,-0.09766 0.2513,3e-6 0.4414,0.07813 0.57031,0.234375 0.1289,0.15495 0.19336,0.383465 0.19336,0.685547"
         style=""
         id="path5157" />
      <path
         d="m 337.31836,21.553403 0,0.621094 0.74023,0 0,0.279297 -0.74023,0 0,1.1875 c 0,0.178385 0.0241,0.292969 0.0723,0.34375 0.0495,0.05078 0.14909,0.07617 0.29883,0.07617 l 0.36914,0 0,0.300782 -0.36914,0 c -0.27734,0 -0.46875,-0.05143 -0.57422,-0.154297 -0.10546,-0.104167 -0.1582,-0.292969 -0.1582,-0.566406 l 0,-1.1875 -0.26367,0 0,-0.279297 0.26367,0 0,-0.621094 0.36133,0"
         style=""
         id="path5159" />
      <path
         d="m 340.7168,24.565122 c -0.10157,0.260416 -0.20053,0.430338 -0.29688,0.509765 -0.0963,0.07943 -0.22526,0.11914 -0.38672,0.119141 l -0.28711,0 0,-0.300781 0.21094,0 c 0.099,-10e-7 0.17578,-0.02344 0.23047,-0.07031 0.0547,-0.04687 0.11523,-0.157552 0.18164,-0.332031 l 0.0644,-0.164063 -0.88476,-2.152343 0.38086,0 0.68359,1.710937 0.68359,-1.710937 0.38086,0 -0.96093,2.390625"
         style=""
         id="path5161" />
      <path
         d="m 330.15234,26.854184 0,1.087891 1.08789,0 0,0.332031 -1.08789,0 0,1.087891 -0.32812,0 0,-1.087891 -1.08789,0 0,-0.332031 1.08789,0 0,-1.087891 0.32812,0"
         style=""
         id="path5163" />
      <path
         d="m 335.07812,26.541684 0,0.384766 c -0.14974,-0.07161 -0.29101,-0.124998 -0.42382,-0.160156 -0.13282,-0.03515 -0.26107,-0.05273 -0.38477,-0.05273 -0.21484,3e-6 -0.38086,0.04167 -0.49805,0.125 -0.11588,0.08334 -0.17382,0.201825 -0.17382,0.355469 0,0.128908 0.0384,0.226564 0.11523,0.292969 0.0781,0.06511 0.22526,0.11784 0.44141,0.158203 l 0.23828,0.04883 c 0.29427,0.05599 0.51106,0.154949 0.65039,0.296875 0.14062,0.140626 0.21093,0.329428 0.21094,0.566406 -1e-5,0.282553 -0.0951,0.496745 -0.28516,0.642578 -0.1888,0.145834 -0.46615,0.21875 -0.83203,0.21875 -0.13802,0 -0.28516,-0.01563 -0.44141,-0.04687 -0.15495,-0.03125 -0.31575,-0.07747 -0.48242,-0.138672 l 0,-0.40625 c 0.16016,0.08985 0.31706,0.157553 0.4707,0.203125 0.15365,0.04557 0.30469,0.06836 0.45313,0.06836 0.22526,0 0.39909,-0.04427 0.52148,-0.132813 0.1224,-0.08854 0.18359,-0.214843 0.1836,-0.378906 -10e-6,-0.143228 -0.0443,-0.255207 -0.13282,-0.335937 -0.0872,-0.08073 -0.23112,-0.141275 -0.43164,-0.181641 l -0.24023,-0.04687 c -0.29427,-0.05859 -0.50716,-0.150389 -0.63867,-0.275391 -0.13151,-0.124998 -0.19727,-0.298826 -0.19727,-0.521484 0,-0.25781 0.0905,-0.460935 0.27149,-0.609375 0.18229,-0.148435 0.43294,-0.222653 0.75195,-0.222656 0.13672,3e-6 0.27604,0.01237 0.41797,0.03711 0.14192,0.02474 0.28711,0.06185 0.43554,0.111328"
         style=""
         id="path5165" />
      <path
         d="m 336.20898,26.553403 0,0.621094 0.74024,0 0,0.279297 -0.74024,0 0,1.1875 c 0,0.178385 0.0241,0.292969 0.0723,0.34375 0.0495,0.05078 0.14909,0.07617 0.29883,0.07617 l 0.36914,0 0,0.300782 -0.36914,0 c -0.27735,0 -0.46875,-0.05143 -0.57422,-0.154297 -0.10547,-0.104167 -0.1582,-0.292969 -0.1582,-0.566406 l 0,-1.1875 -0.26368,0 0,-0.279297 0.26368,0 0,-0.621094 0.36132,0"
         style=""
         id="path5167" />
      <path
         d="m 338.69141,27.510434 c -0.0404,-0.02343 -0.0846,-0.04036 -0.13282,-0.05078 -0.0469,-0.01172 -0.099,-0.01758 -0.15625,-0.01758 -0.20312,2e-6 -0.35937,0.06641 -0.46875,0.199219 -0.10807,0.131512 -0.16211,0.320964 -0.16211,0.568359 l 0,1.152344 -0.36132,0 0,-2.1875 0.36132,0 0,0.339843 c 0.0755,-0.13281 0.17383,-0.231117 0.29493,-0.294921 0.12109,-0.0651 0.26822,-0.09765 0.4414,-0.09766 0.0247,3e-6 0.0521,0.002 0.082,0.0059 0.03,0.0026 0.0632,0.0072 0.0996,0.01367 l 0.002,0.36914"
         style=""
         id="path5169" />
      <path
         d="m 339.07227,27.174497 0.35937,0 0,2.1875 -0.35937,0 0,-2.1875 m 0,-0.851563 0.35937,0 0,0.455078 -0.35937,0 0,-0.455078"
         style=""
         id="path5171" />
      <path
         d="m 342,28.041684 0,1.320313 -0.35938,0 0,-1.308594 c 0,-0.20703 -0.0404,-0.361978 -0.12109,-0.464844 -0.0807,-0.102863 -0.20182,-0.154295 -0.36328,-0.154297 -0.19401,2e-6 -0.34701,0.06185 -0.45898,0.185547 -0.11198,0.1237 -0.16797,0.292319 -0.16797,0.50586 l 0,1.236328 -0.36133,0 0,-2.1875 0.36133,0 0,0.339843 c 0.0859,-0.131508 0.18684,-0.229815 0.30273,-0.294921 0.11719,-0.0651 0.25195,-0.09765 0.4043,-0.09766 0.2513,3e-6 0.4414,0.07813 0.57031,0.234375 0.1289,0.15495 0.19336,0.383465 0.19336,0.685547"
         style=""
         id="path5173" />
      <path
         d="m 344.16016,28.242856 c -1e-5,-0.260415 -0.054,-0.462238 -0.16211,-0.605469 -0.10678,-0.143227 -0.25717,-0.214842 -0.45118,-0.214843 -0.1927,1e-6 -0.34309,0.07162 -0.45117,0.214843 -0.10677,0.143231 -0.16015,0.345054 -0.16015,0.605469 0,0.259115 0.0534,0.460287 0.16015,0.603516 0.10808,0.143229 0.25847,0.214844 0.45117,0.214843 0.19401,1e-6 0.3444,-0.07161 0.45118,-0.214843 0.10807,-0.143229 0.1621,-0.344401 0.16211,-0.603516 m 0.35937,0.847656 c 0,0.372396 -0.0827,0.649088 -0.24805,0.830078 -0.16536,0.182291 -0.41862,0.273437 -0.75976,0.273438 -0.1263,-1e-6 -0.24544,-0.0098 -0.35742,-0.0293 -0.11198,-0.01823 -0.22071,-0.04688 -0.32618,-0.08594 l 0,-0.34961 c 0.10547,0.05729 0.20964,0.09961 0.3125,0.126953 0.10287,0.02734 0.20769,0.04101 0.31446,0.04102 0.23567,-1e-6 0.41211,-0.06185 0.52929,-0.185547 0.11719,-0.122396 0.17578,-0.307943 0.17579,-0.556641 l 0,-0.177734 c -0.0742,0.128907 -0.16928,0.225261 -0.28516,0.289063 -0.11589,0.0638 -0.25456,0.0957 -0.41602,0.0957 -0.26823,0 -0.48437,-0.102214 -0.64843,-0.306641 -0.16407,-0.204427 -0.2461,-0.47526 -0.2461,-0.8125 0,-0.33854 0.082,-0.610024 0.2461,-0.814453 0.16406,-0.204425 0.3802,-0.306638 0.64843,-0.306641 0.16146,3e-6 0.30013,0.0319 0.41602,0.0957 0.11588,0.0638 0.21094,0.160159 0.28516,0.289063 l 0,-0.332031 0.35937,0 0,1.916015"
         style=""
         id="path5175" />
      <path
         d="m 346.88086,29.033872 0,1.160156 -0.36133,0 0,-3.019531 0.36133,0 0,0.332031 c 0.0755,-0.130206 0.17057,-0.226561 0.28516,-0.289063 0.11588,-0.0638 0.2539,-0.0957 0.41406,-0.0957 0.26562,3e-6 0.48112,0.105471 0.64648,0.316407 0.16667,0.210939 0.25,0.488282 0.25,0.832031 0,0.343751 -0.0833,0.621094 -0.25,0.832031 -0.16536,0.210938 -0.38086,0.316406 -0.64648,0.316406 -0.16016,0 -0.29818,-0.03125 -0.41406,-0.09375 -0.11459,-0.0638 -0.20964,-0.160807 -0.28516,-0.291015 m 1.22266,-0.763672 c -10e-6,-0.264322 -0.0547,-0.471353 -0.16407,-0.621094 -0.10807,-0.15104 -0.25716,-0.226561 -0.44726,-0.226562 -0.19011,1e-6 -0.33985,0.07552 -0.44922,0.226562 -0.10807,0.149741 -0.16211,0.356772 -0.16211,0.621094 0,0.264324 0.054,0.472006 0.16211,0.623047 0.10937,0.14974 0.25911,0.224609 0.44922,0.224609 0.1901,0 0.33919,-0.07487 0.44726,-0.224609 0.10938,-0.151041 0.16406,-0.358723 0.16407,-0.623047"
         style=""
         id="path5177" />
      <path
         d="m 350.33984,27.510434 c -0.0404,-0.02343 -0.0846,-0.04036 -0.13281,-0.05078 -0.0469,-0.01172 -0.099,-0.01758 -0.15625,-0.01758 -0.20312,2e-6 -0.35937,0.06641 -0.46875,0.199219 -0.10807,0.131512 -0.16211,0.320964 -0.16211,0.568359 l 0,1.152344 -0.36133,0 0,-2.1875 0.36133,0 0,0.339843 c 0.0755,-0.13281 0.17383,-0.231117 0.29492,-0.294921 0.1211,-0.0651 0.26823,-0.09765 0.44141,-0.09766 0.0247,3e-6 0.0521,0.002 0.082,0.0059 0.03,0.0026 0.0632,0.0072 0.0996,0.01367 l 0.002,0.36914"
         style=""
         id="path5179" />
      <path
         d="m 351.48242,27.42645 c -0.19271,2e-6 -0.34505,0.07552 -0.45703,0.226562 -0.11198,0.149741 -0.16797,0.35547 -0.16797,0.617188 0,0.261719 0.0553,0.468099 0.16602,0.61914 0.11198,0.14974 0.26497,0.22461 0.45898,0.22461 0.19141,0 0.3431,-0.07552 0.45508,-0.226563 0.11198,-0.151041 0.16797,-0.35677 0.16797,-0.617187 0,-0.259113 -0.056,-0.464191 -0.16797,-0.615235 -0.11198,-0.152341 -0.26367,-0.228513 -0.45508,-0.228515 m 0,-0.304688 c 0.3125,3e-6 0.55794,0.101565 0.73633,0.304688 0.17838,0.203127 0.26758,0.484376 0.26758,0.84375 0,0.358073 -0.0892,0.639323 -0.26758,0.84375 -0.17839,0.203125 -0.42383,0.304687 -0.73633,0.304687 -0.3138,0 -0.55989,-0.101562 -0.73828,-0.304687 -0.17708,-0.204427 -0.26562,-0.485677 -0.26562,-0.84375 0,-0.359374 0.0885,-0.640623 0.26562,-0.84375 0.17839,-0.203123 0.42448,-0.304685 0.73828,-0.304688"
         style=""
         id="path5181" />
      <path
         d="m 353.42773,29.033872 0,1.160156 -0.36132,0 0,-3.019531 0.36132,0 0,0.332031 c 0.0755,-0.130206 0.17058,-0.226561 0.28516,-0.289063 0.11588,-0.0638 0.25391,-0.0957 0.41406,-0.0957 0.26563,3e-6 0.48112,0.105471 0.64649,0.316407 0.16666,0.210939 0.25,0.488282 0.25,0.832031 0,0.343751 -0.0833,0.621094 -0.25,0.832031 -0.16537,0.210938 -0.38086,0.316406 -0.64649,0.316406 -0.16015,0 -0.29818,-0.03125 -0.41406,-0.09375 -0.11458,-0.0638 -0.20964,-0.160807 -0.28516,-0.291015 m 1.22266,-0.763672 c 0,-0.264322 -0.0547,-0.471353 -0.16406,-0.621094 -0.10808,-0.15104 -0.25716,-0.226561 -0.44727,-0.226562 -0.1901,1e-6 -0.33984,0.07552 -0.44922,0.226562 -0.10807,0.149741 -0.16211,0.356772 -0.16211,0.621094 0,0.264324 0.054,0.472006 0.16211,0.623047 0.10938,0.14974 0.25912,0.224609 0.44922,0.224609 0.19011,0 0.33919,-0.07487 0.44727,-0.224609 0.10937,-0.151041 0.16406,-0.358723 0.16406,-0.623047"
         style=""
         id="path5183" />
      <path
         d="m 357.49023,28.178403 0,0.175781 -1.65234,0 c 0.0156,0.247397 0.0898,0.436199 0.22266,0.566406 0.13411,0.128907 0.32031,0.19336 0.55859,0.19336 0.13802,0 0.27148,-0.01693 0.40039,-0.05078 0.13021,-0.03385 0.25911,-0.08464 0.38672,-0.152344 l 0,0.339844 c -0.12891,0.05469 -0.26107,0.09635 -0.39648,0.125 -0.13542,0.02865 -0.27279,0.04297 -0.41211,0.04297 -0.34896,0 -0.62566,-0.101562 -0.83008,-0.304687 -0.20313,-0.203125 -0.30469,-0.477864 -0.30469,-0.824219 0,-0.358071 0.0963,-0.641925 0.28906,-0.851562 0.19401,-0.210936 0.45508,-0.316404 0.78321,-0.316407 0.29427,3e-6 0.52669,0.09505 0.69726,0.285157 0.17187,0.188803 0.25781,0.445965 0.25781,0.771484 m -0.35937,-0.105469 c -0.003,-0.196613 -0.058,-0.353514 -0.16602,-0.470703 -0.10677,-0.117186 -0.2487,-0.175779 -0.42578,-0.175781 -0.20052,2e-6 -0.36133,0.05664 -0.48242,0.169922 -0.11979,0.113283 -0.1888,0.272788 -0.20703,0.478515 l 1.28125,-0.002"
         style=""
         id="path5185" />
      <path
         d="m 359.34766,27.510434 c -0.0404,-0.02343 -0.0846,-0.04036 -0.13282,-0.05078 -0.0469,-0.01172 -0.099,-0.01758 -0.15625,-0.01758 -0.20312,2e-6 -0.35937,0.06641 -0.46875,0.199219 -0.10807,0.131512 -0.16211,0.320964 -0.16211,0.568359 l 0,1.152344 -0.36132,0 0,-2.1875 0.36132,0 0,0.339843 c 0.0755,-0.13281 0.17383,-0.231117 0.29493,-0.294921 0.12109,-0.0651 0.26822,-0.09765 0.4414,-0.09766 0.0247,3e-6 0.0521,0.002 0.082,0.0059 0.03,0.0026 0.0632,0.0072 0.0996,0.01367 l 0.002,0.36914"
         style=""
         id="path5187" />
      <path
         d="m 360.08398,26.553403 0,0.621094 0.74024,0 0,0.279297 -0.74024,0 0,1.1875 c 0,0.178385 0.0241,0.292969 0.0723,0.34375 0.0495,0.05078 0.14909,0.07617 0.29883,0.07617 l 0.36914,0 0,0.300782 -0.36914,0 c -0.27735,0 -0.46875,-0.05143 -0.57422,-0.154297 -0.10547,-0.104167 -0.1582,-0.292969 -0.1582,-0.566406 l 0,-1.1875 -0.26368,0 0,-0.279297 0.26368,0 0,-0.621094 0.36132,0"
         style=""
         id="path5189" />
      <path
         d="m 362.20898,29.565122 c -0.10156,0.260416 -0.20052,0.430338 -0.29687,0.509765 -0.0964,0.07943 -0.22526,0.11914 -0.38672,0.119141 l -0.28711,0 0,-0.300781 0.21094,0 c 0.099,-10e-7 0.17578,-0.02344 0.23047,-0.07031 0.0547,-0.04687 0.11523,-0.157552 0.18164,-0.332031 l 0.0644,-0.164063 -0.88476,-2.152343 0.38085,0 0.6836,1.710937 0.68359,-1.710937 0.38086,0 -0.96094,2.390625"
         style=""
         id="path5191" />
    </g>
    <path
       style="fill:none;stroke:#000000;stroke-width:5;stroke-linecap:butt;stroke-linejoin:miter;stroke-miterlimit:4;stroke-opacity:1;stroke-dasharray:none"
       d="m 268.91617,684.81724 267.3179,0"
       id="path4918"
       inkscape:connector-curvature="0" />
    <path
       inkscape:connector-curvature="0"
       style="font-size:4px;font-style:normal;font-weight:normal;line-height:125%;letter-spacing:0px;word-spacing:0px;fill:#000000;fill-opacity:1;stroke:none;font-family:Sans"
       id="path5090"
       d="m 284.46627,694.15604 0,5.33218 5.33218,0 0,1.62741 -5.33218,0 0,5.33218 -1.60824,0 0,-5.33218 -5.33218,0 0,-1.62741 5.33218,0 0,-5.33218 1.60824,0" />
    <path
       inkscape:connector-curvature="0"
       style="font-size:4px;font-style:normal;font-weight:normal;line-height:125%;letter-spacing:0px;word-spacing:0px;fill:#000000;fill-opacity:1;stroke:none;font-family:Sans"
       id="path5092"
       d="m 298.70138,695.72602 1.86675,0 3.35054,8.99865 3.35059,-8.99865 1.86675,0 -4.02071,10.72179 -2.39325,0 -4.02067,-10.72179" />
    <path
       inkscape:connector-curvature="0"
       style="font-size:4px;font-style:normal;font-weight:normal;line-height:125%;letter-spacing:0px;word-spacing:0px;fill:#000000;fill-opacity:1;stroke:none;font-family:Sans"
       id="path5094"
       d="m 315.72225,696.96094 c -0.94454,10e-6 -1.69127,0.37015 -2.24008,1.11047 -0.54886,0.73394 -0.82329,1.7423 -0.82329,3.02508 0,1.28279 0.27105,2.29434 0.81368,3.03465 0.54886,0.73393 1.29877,1.1009 2.24969,1.1009 0.93813,0 1.68162,-0.37015 2.23048,-1.11047 0.54886,-0.74032 0.82329,-1.74867 0.82329,-3.02508 0,-1.27002 -0.27448,-2.27518 -0.82329,-3.01551 -0.54886,-0.74668 -1.29235,-1.12003 -2.23048,-1.12004 m 0,-1.4934 c 1.53169,2e-5 2.73469,0.49781 3.609,1.4934 0.87436,0.9956 1.31151,2.37412 1.31151,4.13555 0,1.75506 -0.4372,3.13357 -1.31151,4.13555 -0.87431,0.99559 -2.07731,1.49339 -3.609,1.49339 -1.5381,0 -2.74429,-0.4978 -3.6186,-1.49339 -0.86798,-1.00198 -1.30195,-2.38049 -1.30195,-4.13555 0,-1.76143 0.43377,-3.13995 1.30195,-4.13555 0.87431,-0.99559 2.0805,-1.49338 3.6186,-1.4934" />
    <path
       inkscape:connector-curvature="0"
       style="font-size:4px;font-style:normal;font-weight:normal;line-height:125%;letter-spacing:0px;word-spacing:0px;fill:#000000;fill-opacity:1;stroke:none;font-family:Sans"
       id="path5096"
       d="m 323.55296,695.72602 1.76147,0 0,10.72179 -1.76147,0 0,-10.72179 m 0,-4.17385 1.76147,0 0,2.23052 -1.76147,0 0,-2.23052" />
    <path
       inkscape:connector-curvature="0"
       style="font-size:4px;font-style:normal;font-weight:normal;line-height:125%;letter-spacing:0px;word-spacing:0px;fill:#000000;fill-opacity:1;stroke:none;font-family:Sans"
       id="path5098"
       d="m 336.04578,697.35343 0,-5.80126 1.76146,0 0,14.89564 -1.76146,0 0,-1.60826 c -0.37006,0.6382 -0.83922,1.11366 -1.40724,1.42637 -0.5616,0.30634 -1.23809,0.45951 -2.02947,0.45951 -1.29554,0 -2.35179,-0.51694 -3.1687,-1.55083 -0.8105,-1.03389 -1.21574,-2.39325 -1.21574,-4.07811 0,-1.68485 0.40534,-3.04422 1.21574,-4.07811 0.81691,-1.03388 1.87316,-1.55082 3.1687,-1.55084 0.79138,2e-5 1.46787,0.15636 2.02947,0.46907 0.56802,0.30633 1.03709,0.77862 1.40724,1.41681 m -6.0023,3.74305 c 0,1.29556 0.26468,2.31349 0.79457,3.0538 0.53611,0.73394 1.27,1.1009 2.2018,1.1009 0.93176,0 1.66569,-0.36697 2.20181,-1.1009 0.53606,-0.74031 0.80412,-1.75824 0.80412,-3.0538 0,-1.29554 -0.26811,-2.31028 -0.80412,-3.04422 -0.53612,-0.74031 -1.27005,-1.11047 -2.20181,-1.11047 -0.9318,0 -1.66569,0.37015 -2.2018,1.11047 -0.52969,0.73394 -0.79457,1.74868 -0.79457,3.04422" />
    <path
       inkscape:connector-curvature="0"
       style="font-size:4px;font-style:normal;font-weight:normal;line-height:125%;letter-spacing:0px;word-spacing:0px;fill:#000000;fill-opacity:1;stroke:none;font-family:Sans"
       id="path5100"
       d="m 354.73234,697.35343 0,-5.80126 1.76146,0 0,14.89564 -1.76146,0 0,-1.60826 c -0.37006,0.6382 -0.83922,1.11366 -1.40724,1.42637 -0.5616,0.30634 -1.23809,0.45951 -2.02947,0.45951 -1.29554,0 -2.35179,-0.51694 -3.1687,-1.55083 -0.8105,-1.03389 -1.21574,-2.39325 -1.21574,-4.07811 0,-1.68485 0.40534,-3.04422 1.21574,-4.07811 0.81691,-1.03388 1.87316,-1.55082 3.1687,-1.55084 0.79138,2e-5 1.46787,0.15636 2.02947,0.46907 0.56802,0.30633 1.03708,0.77862 1.40724,1.41681 m -6.0023,3.74305 c 0,1.29556 0.26468,2.31349 0.79457,3.0538 0.53611,0.73394 1.27,1.1009 2.2018,1.1009 0.93176,0 1.66569,-0.36697 2.20181,-1.1009 0.53606,-0.74031 0.80412,-1.75824 0.80412,-3.0538 0,-1.29554 -0.26811,-2.31028 -0.80412,-3.04422 -0.53612,-0.74031 -1.27005,-1.11047 -2.20181,-1.11047 -0.9318,0 -1.66569,0.37015 -2.2018,1.11047 -0.5297,0.73394 -0.79457,1.74868 -0.79457,3.04422" />
    <path
       inkscape:connector-curvature="0"
       style="font-size:4px;font-style:normal;font-weight:normal;line-height:125%;letter-spacing:0px;word-spacing:0px;fill:#000000;fill-opacity:1;stroke:none;font-family:Sans"
       id="path5102"
       d="m 366.33486,697.37258 c -0.19801,-0.11484 -0.41465,-0.19782 -0.65095,-0.24889 -0.22987,-0.0575 -0.48524,-0.0862 -0.76584,-0.0862 -0.99562,10e-6 -1.76146,0.3255 -2.29753,0.97645 -0.52974,0.64459 -0.79456,1.57317 -0.79456,2.78575 l 0,5.64809 -1.77102,0 0,-10.7218 1.77102,0 0,1.66571 c 0.37005,-0.65096 0.85196,-1.1328 1.44551,-1.44553 0.59351,-0.31908 1.3147,-0.47862 2.16348,-0.47867 0.12106,2e-5 0.25536,0.01 0.40191,0.0289 0.14655,0.0127 0.30977,0.0353 0.48818,0.067 l 0.01,1.8093" />
    <path
       inkscape:connector-curvature="0"
       style="font-size:4px;font-style:normal;font-weight:normal;line-height:125%;letter-spacing:0px;word-spacing:0px;fill:#000000;fill-opacity:1;stroke:none;font-family:Sans"
       id="path5104"
       d="m 373.07428,701.05819 c -1.42322,1e-5 -2.40923,0.16273 -2.95809,0.48823 -0.54886,0.3255 -0.82329,0.88072 -0.82329,1.66571 0,0.62544 0.20439,1.12323 0.61268,1.49339 0.41466,0.36378 0.97645,0.54566 1.68485,0.54566 0.97646,0 1.75828,-0.34461 2.34542,-1.03388 0.59351,-0.69564 0.89028,-1.61784 0.89028,-2.76661 l 0,-0.3925 -1.75185,0 m 3.51332,-0.72755 0,6.11717 -1.76147,0 0,-1.62742 c -0.40191,0.65096 -0.90308,1.13281 -1.50296,1.44552 -0.59993,0.30634 -1.33386,0.45951 -2.2018,0.45951 -1.09772,0 -1.97203,-0.30634 -2.62303,-0.91901 -0.64458,-0.61906 -0.96685,-1.44552 -0.96685,-2.47941 0,-1.2062 0.40191,-2.11564 1.20618,-2.72832 0.81055,-0.61266 2.01673,-0.919 3.6186,-0.91901 l 2.46986,0 0,-0.17233 c 0,-0.81051 -0.2681,-1.43595 -0.80412,-1.87632 -0.52974,-0.44671 -1.27642,-0.6701 -2.24008,-0.67011 -0.61268,10e-6 -1.20942,0.0734 -1.79019,0.22017 -0.58076,0.1468 -1.13918,0.36697 -1.67524,0.66054 l 0,-1.62742 c 0.64458,-0.24889 1.27,-0.43397 1.8763,-0.55523 0.6063,-0.12763 1.19663,-0.19145 1.77102,-0.19145 1.5508,10e-6 2.70915,0.40206 3.47499,1.2062 0.76584,0.80414 1.14874,2.02311 1.14879,3.6569" />
    <path
       inkscape:connector-curvature="0"
       style="font-size:4px;font-style:normal;font-weight:normal;line-height:125%;letter-spacing:0px;word-spacing:0px;fill:#000000;fill-opacity:1;stroke:none;font-family:Sans"
       id="path5106"
       d="m 379.20102,695.72602 1.76141,0 2.20181,8.36683 2.19224,-8.36683 2.07736,0 2.20175,8.36683 2.19225,-8.36683 1.76146,0 -2.80492,10.72179 -2.07735,0 -2.30709,-8.78804 -2.31669,8.78804 -2.07736,0 -2.80487,-10.72179" />
    <path
       inkscape:connector-curvature="0"
       style="font-size:4px;font-style:normal;font-weight:normal;line-height:125%;letter-spacing:0px;word-spacing:0px;fill:#000000;fill-opacity:1;stroke:none;font-family:Sans"
       id="path5108"
       d="m 284.46627,718.663 0,5.33218 5.33218,0 0,1.62742 -5.33218,0 0,5.33218 -1.60824,0 0,-5.33218 -5.33218,0 0,-1.62742 5.33218,0 0,-5.33218 1.60824,0" />
    <path
       inkscape:connector-curvature="0"
       style="font-size:4px;font-style:normal;font-weight:normal;line-height:125%;letter-spacing:0px;word-spacing:0px;fill:#000000;fill-opacity:1;stroke:none;font-family:Sans"
       id="path5110"
       d="m 298.70138,720.23298 1.86675,0 3.35054,8.99865 3.35059,-8.99865 1.86675,0 -4.02071,10.7218 -2.39325,0 -4.02067,-10.7218" />
    <path
       inkscape:connector-curvature="0"
       style="font-size:4px;font-style:normal;font-weight:normal;line-height:125%;letter-spacing:0px;word-spacing:0px;fill:#000000;fill-opacity:1;stroke:none;font-family:Sans"
       id="path5112"
       d="m 315.72225,721.4679 c -0.94454,10e-6 -1.69127,0.37015 -2.24008,1.11047 -0.54886,0.73394 -0.82329,1.7423 -0.82329,3.02508 0,1.28279 0.27105,2.29434 0.81368,3.03465 0.54886,0.73393 1.29877,1.1009 2.24969,1.1009 0.93813,0 1.68162,-0.37015 2.23048,-1.11047 0.54886,-0.74031 0.82329,-1.74867 0.82329,-3.02508 0,-1.27001 -0.27448,-2.27518 -0.82329,-3.01551 -0.54886,-0.74668 -1.29235,-1.12003 -2.23048,-1.12004 m 0,-1.49339 c 1.53169,10e-6 2.73469,0.49781 3.609,1.49339 0.87436,0.99561 1.31151,2.37412 1.31151,4.13555 0,1.75506 -0.4372,3.13357 -1.31151,4.13555 -0.87431,0.9956 -2.07731,1.49339 -3.609,1.49339 -1.5381,0 -2.74429,-0.49779 -3.6186,-1.49339 -0.86798,-1.00198 -1.30195,-2.38049 -1.30195,-4.13555 0,-1.76143 0.43377,-3.13994 1.30195,-4.13555 0.87431,-0.99558 2.0805,-1.49338 3.6186,-1.49339" />
    <path
       inkscape:connector-curvature="0"
       style="font-size:4px;font-style:normal;font-weight:normal;line-height:125%;letter-spacing:0px;word-spacing:0px;fill:#000000;fill-opacity:1;stroke:none;font-family:Sans"
       id="path5114"
       d="m 323.55296,720.23298 1.76147,0 0,10.7218 -1.76147,0 0,-10.7218 m 0,-4.17384 1.76147,0 0,2.23051 -1.76147,0 0,-2.23051" />
    <path
       inkscape:connector-curvature="0"
       style="font-size:4px;font-style:normal;font-weight:normal;line-height:125%;letter-spacing:0px;word-spacing:0px;fill:#000000;fill-opacity:1;stroke:none;font-family:Sans"
       id="path5116"
       d="m 336.04578,721.8604 0,-5.80126 1.76146,0 0,14.89564 -1.76146,0 0,-1.60827 c -0.37006,0.6382 -0.83922,1.11366 -1.40724,1.42638 -0.5616,0.30633 -1.23809,0.4595 -2.02947,0.4595 -1.29554,0 -2.35179,-0.51694 -3.1687,-1.55083 -0.8105,-1.03388 -1.21574,-2.39325 -1.21574,-4.07811 0,-1.68485 0.40534,-3.04421 1.21574,-4.07811 0.81691,-1.03388 1.87316,-1.55082 3.1687,-1.55083 0.79138,10e-6 1.46787,0.15635 2.02947,0.46906 0.56802,0.30634 1.03709,0.77862 1.40724,1.41681 m -6.0023,3.74306 c 0,1.29555 0.26468,2.31348 0.79457,3.05379 0.53611,0.73394 1.27,1.1009 2.2018,1.1009 0.93176,0 1.66569,-0.36697 2.20181,-1.1009 0.53606,-0.74031 0.80412,-1.75824 0.80412,-3.05379 0,-1.29555 -0.26811,-2.31029 -0.80412,-3.04423 -0.53612,-0.7403 -1.27005,-1.11046 -2.20181,-1.11047 -0.9318,10e-6 -1.66569,0.37016 -2.2018,1.11047 -0.52969,0.73394 -0.79457,1.74868 -0.79457,3.04423" />
    <path
       inkscape:connector-curvature="0"
       style="font-size:4px;font-style:normal;font-weight:normal;line-height:125%;letter-spacing:0px;word-spacing:0px;fill:#000000;fill-opacity:1;stroke:none;font-family:Sans"
       id="path5118"
       d="m 347.67703,720.23298 1.76141,0 0,10.7218 -1.76141,0 0,-10.7218 m 0,-4.17384 1.76141,0 0,2.23051 -1.76141,0 0,-2.23051" />
    <path
       inkscape:connector-curvature="0"
       style="font-size:4px;font-style:normal;font-weight:normal;line-height:125%;letter-spacing:0px;word-spacing:0px;fill:#000000;fill-opacity:1;stroke:none;font-family:Sans"
       id="path5120"
       d="m 361.46219,722.29118 c 0.44015,-0.79136 0.96685,-1.37531 1.57953,-1.75186 0.61267,-0.37653 1.33386,-0.5648 2.16352,-0.56481 1.11683,10e-6 1.9784,0.3925 2.5847,1.17748 0.6063,0.77862 0.90945,1.88909 0.90945,3.33141 l 0,6.47138 -1.77102,0 0,-6.41394 c 0,-1.02749 -0.18184,-1.79015 -0.54567,-2.28795 -0.36368,-0.49779 -0.91901,-0.74669 -1.66569,-0.7467 -0.91264,1e-5 -1.63383,0.30315 -2.16352,0.90944 -0.52969,0.6063 -0.79457,1.43277 -0.79457,2.47942 l 0,6.05973 -1.77097,0 0,-6.41394 c 0,-1.03388 -0.18184,-1.79653 -0.54567,-2.28795 -0.36368,-0.49779 -0.92538,-0.74669 -1.68485,-0.7467 -0.8999,1e-5 -1.61467,0.30634 -2.14436,0.91901 -0.52969,0.6063 -0.79457,1.42958 -0.79457,2.46985 l 0,6.05973 -1.77102,0 0,-10.7218 1.77102,0 0,1.6657 c 0.40192,-0.65733 0.88392,-1.14236 1.44552,-1.4551 0.5616,-0.3127 1.22854,-0.46906 2.00075,-0.46906 0.77864,2e-5 1.43915,0.19787 1.98163,0.59353 0.54886,0.39569 0.95411,0.97008 1.21579,1.72315" />
    <path
       inkscape:connector-curvature="0"
       style="font-size:4px;font-style:normal;font-weight:normal;line-height:125%;letter-spacing:0px;word-spacing:0px;fill:#000000;fill-opacity:1;stroke:none;font-family:Sans"
       id="path5122"
       d="m 377.09494,725.56516 c -1.42317,0 -2.40923,0.16272 -2.95804,0.48822 -0.54886,0.32551 -0.82329,0.88073 -0.82329,1.66571 0,0.62544 0.20439,1.12324 0.61268,1.49339 0.41466,0.36379 0.9764,0.54567 1.68485,0.54567 0.97641,0 1.75823,-0.34462 2.34537,-1.03389 0.59351,-0.69564 0.89029,-1.61784 0.89029,-2.76661 l 0,-0.3925 -1.75186,0 m 3.51332,-0.72755 0,6.11717 -1.76146,0 0,-1.62742 c -0.40192,0.65097 -0.90304,1.13281 -1.50297,1.44553 -0.59988,0.30633 -1.33381,0.4595 -2.2018,0.4595 -1.09772,0 -1.97203,-0.30634 -2.62298,-0.91901 -0.64458,-0.61905 -0.9669,-1.44552 -0.9669,-2.47941 0,-1.2062 0.40192,-2.11564 1.20623,-2.72832 0.8105,-0.61266 2.01668,-0.919 3.6186,-0.91901 l 2.46982,0 0,-0.17233 c 0,-0.81051 -0.26811,-1.43595 -0.80413,-1.87631 -0.52969,-0.44672 -1.27642,-0.67011 -2.24008,-0.67012 -0.61267,1e-5 -1.20942,0.0734 -1.79018,0.22017 -0.58077,0.1468 -1.13919,0.36697 -1.67525,0.66054 l 0,-1.62742 c 0.64458,-0.24889 1.27,-0.43396 1.8763,-0.55523 0.6063,-0.12763 1.19663,-0.19145 1.77102,-0.19145 1.5508,2e-5 2.70915,0.40206 3.47499,1.2062 0.76584,0.80415 1.14879,2.02311 1.14879,3.6569" />
    <path
       inkscape:connector-curvature="0"
       style="font-size:4px;font-style:normal;font-weight:normal;line-height:125%;letter-spacing:0px;word-spacing:0px;fill:#000000;fill-opacity:1;stroke:none;font-family:Sans"
       id="path5124"
       d="m 391.30133,725.46943 c 0,-1.2764 -0.26467,-2.26561 -0.79456,-2.96764 -0.52332,-0.70202 -1.26044,-1.05303 -2.21136,-1.05303 -0.94455,0 -1.68167,0.35103 -2.21137,1.05303 -0.52337,0.70203 -0.785,1.69124 -0.785,2.96764 0,1.27002 0.26173,2.25604 0.785,2.95807 0.5297,0.70202 1.26682,1.05303 2.21137,1.05303 0.95092,0 1.68804,-0.35099 2.21136,-1.05303 0.52969,-0.70203 0.79456,-1.68805 0.79456,-2.95807 m 1.76142,4.15469 c 0,1.82526 -0.40535,3.18144 -1.21575,4.06854 -0.81054,0.89348 -2.05182,1.34022 -3.72393,1.34023 -0.61904,-10e-6 -1.20299,-0.048 -1.75185,-0.14361 -0.54886,-0.0894 -1.08174,-0.22978 -1.59869,-0.42123 l 0,-1.71357 c 0.51695,0.2808 1.02748,0.48822 1.53169,0.62224 0.50415,0.13401 1.01792,0.20101 1.54124,0.20106 1.15516,-10e-6 2.01991,-0.30315 2.59431,-0.90944 0.57434,-0.59991 0.86156,-1.50935 0.86156,-2.72832 l 0,-0.87114 c -0.36368,0.63182 -0.82966,1.10409 -1.39768,1.41681 -0.56797,0.31271 -1.2477,0.46906 -2.03903,0.46906 -1.3147,0 -2.37413,-0.50099 -3.17826,-1.50297 -0.80412,-1.00197 -1.20618,-2.32943 -1.20618,-3.98238 0,-1.65931 0.40191,-2.98996 1.20618,-3.99195 0.80413,-1.00197 1.86356,-1.50295 3.17826,-1.50297 0.79133,2e-5 1.47106,0.15636 2.03903,0.46906 0.56802,0.31271 1.0339,0.78501 1.39768,1.41682 l 0,-1.62742 1.76142,0 0,9.39114" />
    <path
       inkscape:connector-curvature="0"
       style="font-size:4px;font-style:normal;font-weight:normal;line-height:125%;letter-spacing:0px;word-spacing:0px;fill:#000000;fill-opacity:1;stroke:none;font-family:Sans"
       id="path5126"
       d="m 405.8619,725.15352 0,0.86157 -8.09877,0 c 0.0765,1.21259 0.44015,2.13798 1.0913,2.77618 0.65737,0.63182 1.57001,0.94773 2.73791,0.94773 0.67649,0 1.33063,-0.083 1.96247,-0.24889 0.63821,-0.16591 1.27,-0.41486 1.89547,-0.7467 l 0,1.66571 c -0.63184,0.26806 -1.27961,0.47225 -1.94335,0.61267 -0.66375,0.14043 -1.33701,0.21062 -2.01992,0.21062 -1.71039,0 -3.06655,-0.4978 -4.0685,-1.49339 -0.99561,-0.9956 -1.4934,-2.3422 -1.4934,-4.03982 0,-1.75505 0.472,-3.14633 1.4168,-4.17384 0.95092,-1.03388 2.23052,-1.55082 3.83877,-1.55084 1.44233,2e-5 2.58151,0.46588 3.41759,1.39767 0.8424,0.92539 1.26363,2.18585 1.26363,3.78134 m -1.76141,-0.51694 c -0.0147,-0.96368 -0.28429,-1.73271 -0.81373,-2.3071 -0.52333,-0.57438 -1.21898,-0.86156 -2.08692,-0.86157 -0.98283,10e-6 -1.77102,0.27761 -2.36453,0.83285 -0.58714,0.55525 -0.92538,1.33704 -1.01473,2.34539 l 6.27991,-0.01" />
    <path
       inkscape:connector-curvature="0"
       style="font-size:4px;font-style:normal;font-weight:normal;line-height:125%;letter-spacing:0px;word-spacing:0px;fill:#000000;fill-opacity:1;stroke:none;font-family:Sans"
       id="path5128"
       d="m 408.60937,716.66224 1.94331,0 0,8.68274 c 0,1.53169 0.27742,2.63577 0.83284,3.31227 0.55528,0.67011 1.45513,1.00517 2.69964,1.00517 1.23809,0 2.13475,-0.33506 2.68998,-1.00517 0.55523,-0.6765 0.83285,-1.78058 0.8329,-3.31227 l 0,-8.68274 1.9433,0 0,8.92207 c 0,1.86355 -0.46269,3.27078 -1.38807,4.2217 -0.91901,0.95092 -2.27842,1.42638 -4.07811,1.42638 -1.80611,0 -3.17189,-0.47543 -4.09727,-1.42638 -0.91901,-0.95092 -1.37852,-2.35815 -1.37852,-4.2217 l 0,-8.92207" />
    <path
       inkscape:connector-curvature="0"
       style="font-size:4px;font-style:normal;font-weight:normal;line-height:125%;letter-spacing:0px;word-spacing:0px;fill:#000000;fill-opacity:1;stroke:none;font-family:Sans"
       id="path5130"
       d="m 424.81651,729.34651 0,5.68638 -1.77102,0 0,-14.79991 1.77102,0 0,1.62742 c 0.37006,-0.6382 0.83603,-1.11047 1.39769,-1.41682 0.56797,-0.3127 1.24446,-0.46906 2.02947,-0.46906 1.3019,2e-5 2.35815,0.51696 3.16865,1.55084 0.81691,1.03389 1.22535,2.39326 1.22535,4.07811 0,1.68485 -0.40829,3.04422 -1.22535,4.07811 -0.8105,1.03389 -1.86675,1.55083 -3.16865,1.55083 -0.78501,0 -1.4615,-0.15317 -2.02947,-0.45951 -0.56166,-0.31271 -1.02753,-0.78818 -1.39769,-1.42638 m 5.99274,-3.74305 c -5e-5,-1.29555 -0.26811,-2.31029 -0.80417,-3.04423 -0.52969,-0.74031 -1.26044,-1.11046 -2.1922,-1.11047 -0.9318,1e-5 -1.66574,0.37015 -2.2018,1.11047 -0.52969,0.73394 -0.79457,1.74868 -0.79457,3.04423 0,1.29555 0.26468,2.31348 0.79457,3.05379 0.53606,0.73394 1.27,1.1009 2.2018,1.1009 0.93176,0 1.66251,-0.36697 2.1922,-1.1009 0.53611,-0.74031 0.80412,-1.75824 0.80417,-3.05379" />
    <path
       inkscape:connector-curvature="0"
       style="font-size:4px;font-style:normal;font-weight:normal;line-height:125%;letter-spacing:0px;word-spacing:0px;fill:#000000;fill-opacity:1;stroke:none;font-family:Sans"
       id="path5132"
       d="m 440.43014,725.56516 c -1.42321,0 -2.40923,0.16272 -2.95808,0.48822 -0.54886,0.32551 -0.82329,0.88073 -0.82329,1.66571 0,0.62544 0.20439,1.12324 0.61267,1.49339 0.41466,0.36379 0.97646,0.54567 1.68486,0.54567 0.97645,0 1.75822,-0.34462 2.34541,-1.03389 0.59351,-0.69564 0.89029,-1.61784 0.89029,-2.76661 l 0,-0.3925 -1.75186,0 m 3.51327,-0.72755 0,6.11717 -1.76141,0 0,-1.62742 c -0.40191,0.65097 -0.90308,1.13281 -1.50296,1.44553 -0.59993,0.30633 -1.33387,0.4595 -2.20181,0.4595 -1.09771,0 -1.97207,-0.30634 -2.62303,-0.91901 -0.64458,-0.61905 -0.96684,-1.44552 -0.96684,-2.47941 0,-1.2062 0.40191,-2.11564 1.20618,-2.72832 0.81049,-0.61266 2.01673,-0.919 3.6186,-0.91901 l 2.46986,0 0,-0.17233 c 0,-0.81051 -0.26811,-1.43595 -0.80412,-1.87631 -0.52974,-0.44672 -1.27642,-0.67011 -2.24013,-0.67012 -0.61268,1e-5 -1.20937,0.0734 -1.79014,0.22017 -0.58077,0.1468 -1.13918,0.36697 -1.6753,0.66054 l 0,-1.62742 c 0.64459,-0.24889 1.27005,-0.43396 1.87636,-0.55523 0.60625,-0.12763 1.19662,-0.19145 1.77097,-0.19145 1.55085,2e-5 2.70919,0.40206 3.47503,1.2062 0.76585,0.80415 1.14874,2.02311 1.14874,3.6569" />
    <path
       inkscape:connector-curvature="0"
       style="font-size:4px;font-style:normal;font-weight:normal;line-height:125%;letter-spacing:0px;word-spacing:0px;fill:#000000;fill-opacity:1;stroke:none;font-family:Sans"
       id="path5134"
       d="m 454.63649,721.8604 0,-5.80126 1.76146,0 0,14.89564 -1.76146,0 0,-1.60827 c -0.37006,0.6382 -0.83922,1.11366 -1.40724,1.42638 -0.5616,0.30633 -1.23809,0.4595 -2.02947,0.4595 -1.29554,0 -2.35179,-0.51694 -3.16865,-1.55083 -0.81055,-1.03388 -1.21579,-2.39325 -1.21579,-4.07811 0,-1.68485 0.40534,-3.04421 1.21579,-4.07811 0.81686,-1.03388 1.87311,-1.55082 3.16865,-1.55083 0.79138,10e-6 1.46787,0.15635 2.02947,0.46906 0.56802,0.30634 1.03708,0.77862 1.40724,1.41681 m -6.0023,3.74306 c 0,1.29555 0.26468,2.31348 0.79457,3.05379 0.53611,0.73394 1.27005,1.1009 2.2018,1.1009 0.93181,0 1.66569,-0.36697 2.20181,-1.1009 0.53606,-0.74031 0.80412,-1.75824 0.80412,-3.05379 0,-1.29555 -0.26811,-2.31029 -0.80412,-3.04423 -0.53612,-0.7403 -1.27,-1.11046 -2.20181,-1.11047 -0.93175,10e-6 -1.66569,0.37016 -2.2018,1.11047 -0.5297,0.73394 -0.79457,1.74868 -0.79457,3.04423" />
    <path
       inkscape:connector-curvature="0"
       style="font-size:4px;font-style:normal;font-weight:normal;line-height:125%;letter-spacing:0px;word-spacing:0px;fill:#000000;fill-opacity:1;stroke:none;font-family:Sans"
       id="path5136"
       d="m 464.89878,725.56516 c -1.42317,0 -2.40918,0.16272 -2.95804,0.48822 -0.54886,0.32551 -0.82329,0.88073 -0.82329,1.66571 0,0.62544 0.20439,1.12324 0.61268,1.49339 0.41465,0.36379 0.97645,0.54567 1.68485,0.54567 0.97645,0 1.75823,-0.34462 2.34536,-1.03389 0.59356,-0.69564 0.89029,-1.61784 0.89034,-2.76661 l 0,-0.3925 -1.7519,0 m 3.51332,-0.72755 0,6.11717 -1.76142,0 0,-1.62742 c -0.40191,0.65097 -0.90308,1.13281 -1.50301,1.44553 -0.59988,0.30633 -1.33382,0.4595 -2.20175,0.4595 -1.09772,0 -1.97208,-0.30634 -2.62303,-0.91901 -0.64459,-0.61905 -0.9669,-1.44552 -0.9669,-2.47941 0,-1.2062 0.40191,-2.11564 1.20623,-2.72832 0.8105,-0.61266 2.01673,-0.919 3.6186,-0.91901 l 2.46986,0 0,-0.17233 c -5e-5,-0.81051 -0.2681,-1.43595 -0.80417,-1.87631 -0.52969,-0.44672 -1.27637,-0.67011 -2.24008,-0.67012 -0.61268,1e-5 -1.20937,0.0734 -1.79014,0.22017 -0.58076,0.1468 -1.13918,0.36697 -1.67529,0.66054 l 0,-1.62742 c 0.64458,-0.24889 1.27,-0.43396 1.8763,-0.55523 0.6063,-0.12763 1.19662,-0.19145 1.77102,-0.19145 1.55085,2e-5 2.70915,0.40206 3.47504,1.2062 0.76579,0.80415 1.14874,2.02311 1.14874,3.6569" />
    <path
       inkscape:connector-curvature="0"
       style="font-size:4px;font-style:normal;font-weight:normal;line-height:125%;letter-spacing:0px;word-spacing:0px;fill:#000000;fill-opacity:1;stroke:none;font-family:Sans"
       id="path5138"
       d="m 473.79216,717.18876 0,3.04422 3.62816,0 0,1.36895 -3.62816,0 0,5.8204 c 0,0.87433 0.11812,1.43595 0.35437,1.68485 0.24262,0.2489 0.73075,0.37334 1.46468,0.37334 l 1.8093,0 0,1.47425 -1.8093,0 c -1.35935,0 -2.29753,-0.25208 -2.81448,-0.75627 -0.51695,-0.51056 -0.7754,-1.43595 -0.7754,-2.77618 l 0,-5.8204 -1.29235,0 0,-1.36894 1.29235,0 0,-3.04423 1.77102,0" />
    <path
       inkscape:connector-curvature="0"
       style="font-size:4px;font-style:normal;font-weight:normal;line-height:125%;letter-spacing:0px;word-spacing:0px;fill:#000000;fill-opacity:1;stroke:none;font-family:Sans"
       id="path5140"
       d="m 488.91751,725.15352 0,0.86157 -8.09876,0 c 0.0765,1.21259 0.44014,2.13798 1.09134,2.77618 0.65733,0.63182 1.56996,0.94773 2.73787,0.94773 0.67649,0 1.33063,-0.083 1.96247,-0.24889 0.63821,-0.16591 1.27,-0.41486 1.89546,-0.7467 l 0,1.66571 c -0.63184,0.26806 -1.2796,0.47225 -1.9433,0.61267 -0.66375,0.14043 -1.33705,0.21062 -2.01991,0.21062 -1.71039,0 -3.06661,-0.4978 -4.06855,-1.49339 -0.99562,-0.9956 -1.49341,-2.3422 -1.49341,-4.03982 0,-1.75505 0.47201,-3.14633 1.4168,-4.17384 0.95092,-1.03388 2.23053,-1.55082 3.83882,-1.55084 1.44233,2e-5 2.58151,0.46588 3.41754,1.39767 0.84241,0.92539 1.26363,2.18585 1.26363,3.78134 m -1.76141,-0.51694 c -0.0147,-0.96368 -0.28428,-1.73271 -0.81373,-2.3071 -0.52332,-0.57438 -1.21898,-0.86156 -2.08692,-0.86157 -0.98282,10e-6 -1.77102,0.27761 -2.36452,0.83285 -0.58714,0.55525 -0.92539,1.33704 -1.01474,2.34539 l 6.27991,-0.01" />
    <g
       transform="matrix(4.130199,0,0,4.130199,-1237.3926,110.9363)"
       style="font-size:4px;font-style:normal;font-weight:normal;line-height:125%;letter-spacing:0px;word-spacing:0px;fill:#000000;fill-opacity:1;stroke:none;font-family:Sans"
       id="flowRoot3133">
      <path
         d="m 396.58398,140.95184 c -0.17448,0.29948 -0.30403,0.59571 -0.38867,0.88867 -0.0846,0.29297 -0.12695,0.58985 -0.12695,0.89063 0,0.30078 0.0423,0.59896 0.12695,0.89453 0.0859,0.29427 0.2155,0.59049 0.38867,0.88867 l -0.3125,0 c -0.19531,-0.30599 -0.34179,-0.60677 -0.43945,-0.90234 -0.0963,-0.29558 -0.14453,-0.5892 -0.14453,-0.88086 0,-0.29037 0.0482,-0.58268 0.14453,-0.87696 0.0964,-0.29426 0.24284,-0.59505 0.43945,-0.90234 l 0.3125,0"
         style=""
         id="path3208" />
      <path
         d="m 397.22656,140.95184 0.3125,0 c 0.19531,0.30729 0.34115,0.60808 0.4375,0.90234 0.0977,0.29428 0.14649,0.58659 0.14649,0.87696 0,0.29166 -0.0488,0.58528 -0.14649,0.88086 -0.0964,0.29557 -0.24219,0.59635 -0.4375,0.90234 l -0.3125,0 c 0.17318,-0.29818 0.30209,-0.5944 0.38672,-0.88867 0.0859,-0.29557 0.12891,-0.59375 0.12891,-0.89453 0,-0.30078 -0.043,-0.59766 -0.12891,-0.89063 -0.0846,-0.29296 -0.21354,-0.58919 -0.38672,-0.88867"
         style=""
         id="path3210" />
    </g>
    <g
       transform="matrix(4.130199,0,0,4.130199,-1140.6069,135.22201)"
       style="font-size:4px;font-style:normal;font-weight:normal;line-height:125%;letter-spacing:0px;word-spacing:0px;fill:#000000;fill-opacity:1;stroke:none;font-family:Sans"
       id="flowRoot3141">
      <path
         d="m 396.58398,140.95184 c -0.17448,0.29948 -0.30403,0.59571 -0.38867,0.88867 -0.0846,0.29297 -0.12695,0.58985 -0.12695,0.89063 0,0.30078 0.0423,0.59896 0.12695,0.89453 0.0859,0.29427 0.2155,0.59049 0.38867,0.88867 l -0.3125,0 c -0.19531,-0.30599 -0.34179,-0.60677 -0.43945,-0.90234 -0.0963,-0.29558 -0.14453,-0.5892 -0.14453,-0.88086 0,-0.29037 0.0482,-0.58268 0.14453,-0.87696 0.0964,-0.29426 0.24284,-0.59505 0.43945,-0.90234 l 0.3125,0"
         style=""
         id="path3213" />
      <path
         d="m 397.22656,140.95184 0.3125,0 c 0.19531,0.30729 0.34115,0.60808 0.4375,0.90234 0.0977,0.29428 0.14649,0.58659 0.14649,0.87696 0,0.29166 -0.0488,0.58528 -0.14649,0.88086 -0.0964,0.29557 -0.24219,0.59635 -0.4375,0.90234 l -0.3125,0 c 0.17318,-0.29818 0.30209,-0.5944 0.38672,-0.88867 0.0859,-0.29557 0.12891,-0.59375 0.12891,-0.89453 0,-0.30078 -0.043,-0.59766 -0.12891,-0.89063 -0.0846,-0.29296 -0.21354,-0.58919 -0.38672,-0.88867"
         style=""
         id="path3215" />
    </g>
    <g
       transform="matrix(4.130199,0,0,4.130199,-984.89257,410.9363)"
       style="font-size:4px;font-style:normal;font-weight:normal;line-height:125%;letter-spacing:0px;word-spacing:0px;fill:#000000;fill-opacity:1;stroke:none;font-family:Sans"
       id="flowRoot3149">
      <path
         d="m 396.58398,140.95184 c -0.17448,0.29948 -0.30403,0.59571 -0.38867,0.88867 -0.0846,0.29297 -0.12695,0.58985 -0.12695,0.89063 0,0.30078 0.0423,0.59896 0.12695,0.89453 0.0859,0.29427 0.2155,0.59049 0.38867,0.88867 l -0.3125,0 c -0.19531,-0.30599 -0.34179,-0.60677 -0.43945,-0.90234 -0.0963,-0.29558 -0.14453,-0.5892 -0.14453,-0.88086 0,-0.29037 0.0482,-0.58268 0.14453,-0.87696 0.0964,-0.29426 0.24284,-0.59505 0.43945,-0.90234 l 0.3125,0"
         style=""
         id="path3218" />
      <path
         d="m 397.22656,140.95184 0.3125,0 c 0.19531,0.30729 0.34115,0.60808 0.4375,0.90234 0.0977,0.29428 0.14649,0.58659 0.14649,0.87696 0,0.29166 -0.0488,0.58528 -0.14649,0.88086 -0.0964,0.29557 -0.24219,0.59635 -0.4375,0.90234 l -0.3125,0 c 0.17318,-0.29818 0.30209,-0.5944 0.38672,-0.88867 0.0859,-0.29557 0.12891,-0.59375 0.12891,-0.89453 0,-0.30078 -0.043,-0.59766 -0.12891,-0.89063 -0.0846,-0.29296 -0.21354,-0.58919 -0.38672,-0.88867"
         style=""
         id="path3220" />
    </g>
    <path
       inkscape:connector-curvature="0"
       id="path4932"
       d="m 268.91617,596.81887 267.3179,0"
       style="fill:none;stroke:#000000;stroke-width:5;stroke-linecap:butt;stroke-linejoin:miter;stroke-miterlimit:4;stroke-opacity:1;stroke-dasharray:none" />
    <rect
       y="834.77625"
       x="13.84199"
       height="95.331444"
       width="266.5943"
       id="rect4942"
       style="fill:#ffffff;fill-opacity:1;stroke:#000000;stroke-width:5;stroke-linecap:round;stroke-linejoin:round;stroke-miterlimit:4;stroke-opacity:1;stroke-dasharray:none" />
    <g
       transform="matrix(4.9013924,0,0,4.9013924,-1498.2881,759.48268)"
       style="font-size:4px;font-style:normal;font-weight:normal;line-height:125%;letter-spacing:0px;word-spacing:0px;fill:#000000;fill-opacity:1;stroke:none;font-family:Sans"
       id="flowRoot4944">
      <path
         d="m 330.45312,16.541684 0,0.384766 c -0.14974,-0.07161 -0.29101,-0.124998 -0.42382,-0.160156 -0.13282,-0.03515 -0.26107,-0.05273 -0.38477,-0.05273 -0.21484,3e-6 -0.38086,0.04167 -0.49805,0.125 -0.11588,0.08334 -0.17382,0.201825 -0.17382,0.355469 0,0.128908 0.0384,0.226564 0.11523,0.292969 0.0781,0.06511 0.22526,0.11784 0.44141,0.158203 l 0.23828,0.04883 c 0.29427,0.05599 0.51106,0.154949 0.65039,0.296875 0.14062,0.140626 0.21093,0.329428 0.21094,0.566406 -1e-5,0.282553 -0.0951,0.496745 -0.28516,0.642578 -0.1888,0.145834 -0.46615,0.21875 -0.83203,0.21875 -0.13802,0 -0.28516,-0.01563 -0.44141,-0.04687 -0.15495,-0.03125 -0.31575,-0.07747 -0.48242,-0.138672 l 0,-0.40625 c 0.16016,0.08985 0.31706,0.157553 0.4707,0.203125 0.15365,0.04557 0.30469,0.06836 0.45313,0.06836 0.22526,0 0.39909,-0.04427 0.52148,-0.132813 0.1224,-0.08854 0.18359,-0.214843 0.1836,-0.378906 -10e-6,-0.143228 -0.0443,-0.255207 -0.13282,-0.335937 -0.0872,-0.08073 -0.23112,-0.141275 -0.43164,-0.181641 l -0.24023,-0.04687 c -0.29427,-0.05859 -0.50716,-0.150389 -0.63867,-0.275391 -0.13151,-0.124998 -0.19727,-0.298826 -0.19727,-0.521484 0,-0.25781 0.0905,-0.460935 0.27149,-0.609375 0.18229,-0.148435 0.43294,-0.222653 0.75195,-0.222656 0.13672,3e-6 0.27604,0.01237 0.41797,0.03711 0.14192,0.02474 0.28711,0.06185 0.43554,0.111328"
         style=""
         id="path5058" />
      <path
         d="m 333.09961,18.178403 0,0.175781 -1.65234,0 c 0.0156,0.247397 0.0898,0.436199 0.22265,0.566406 0.13412,0.128907 0.32031,0.19336 0.5586,0.19336 0.13801,0 0.27148,-0.01693 0.40039,-0.05078 0.1302,-0.03385 0.25911,-0.08464 0.38671,-0.152344 l 0,0.339844 c -0.1289,0.05469 -0.26106,0.09635 -0.39648,0.125 -0.13542,0.02865 -0.27279,0.04297 -0.41211,0.04297 -0.34896,0 -0.62565,-0.101562 -0.83008,-0.304687 -0.20312,-0.203125 -0.30468,-0.477864 -0.30468,-0.824219 0,-0.358071 0.0963,-0.641925 0.28906,-0.851562 0.19401,-0.210936 0.45508,-0.316404 0.7832,-0.316407 0.29427,3e-6 0.52669,0.09505 0.69727,0.285157 0.17187,0.188803 0.25781,0.445965 0.25781,0.771484 m -0.35938,-0.105469 c -0.003,-0.196613 -0.0579,-0.353514 -0.16601,-0.470703 -0.10677,-0.117186 -0.2487,-0.175779 -0.42578,-0.175781 -0.20052,2e-6 -0.36133,0.05664 -0.48242,0.169922 -0.1198,0.113283 -0.18881,0.272788 -0.20704,0.478515 l 1.28125,-0.002"
         style=""
         id="path5060" />
      <path
         d="m 335.26367,17.258481 0,0.335938 c -0.10156,-0.05599 -0.20378,-0.09765 -0.30664,-0.125 -0.10156,-0.02864 -0.20443,-0.04297 -0.30859,-0.04297 -0.23308,2e-6 -0.41407,0.07422 -0.54297,0.222656 -0.12891,0.147137 -0.19336,0.354168 -0.19336,0.621094 0,0.266928 0.0645,0.47461 0.19336,0.623047 0.1289,0.147135 0.30989,0.220703 0.54297,0.220703 0.10416,0 0.20703,-0.01367 0.30859,-0.04102 0.10286,-0.02865 0.20508,-0.07096 0.30664,-0.126953 l 0,0.332031 c -0.10026,0.04687 -0.20443,0.08203 -0.3125,0.105469 -0.10677,0.02344 -0.2207,0.03516 -0.3418,0.03516 -0.32942,0 -0.59114,-0.103515 -0.78515,-0.310547 -0.19401,-0.20703 -0.29102,-0.486327 -0.29102,-0.83789 0,-0.35677 0.0977,-0.637368 0.29297,-0.841797 0.19662,-0.204425 0.4655,-0.306638 0.80664,-0.306641 0.11068,3e-6 0.21875,0.01172 0.32422,0.03516 0.10547,0.02214 0.20768,0.05599 0.30664,0.101562"
         style=""
         id="path5062" />
      <path
         d="m 336.24805,16.553403 0,0.621094 0.74023,0 0,0.279297 -0.74023,0 0,1.1875 c 0,0.178385 0.0241,0.292969 0.0723,0.34375 0.0495,0.05078 0.14909,0.07617 0.29883,0.07617 l 0.36914,0 0,0.300782 -0.36914,0 c -0.27734,0 -0.46875,-0.05143 -0.57422,-0.154297 -0.10547,-0.104167 -0.1582,-0.292969 -0.1582,-0.566406 l 0,-1.1875 -0.26367,0 0,-0.279297 0.26367,0 0,-0.621094 0.36133,0"
         style=""
         id="path5064" />
      <path
         d="m 337.46289,17.174497 0.35938,0 0,2.1875 -0.35938,0 0,-2.1875 m 0,-0.851563 0.35938,0 0,0.455078 -0.35938,0 0,-0.455078"
         style=""
         id="path5066" />
      <path
         d="m 339.41992,17.42645 c -0.19271,2e-6 -0.34505,0.07552 -0.45703,0.226562 -0.11198,0.149741 -0.16797,0.35547 -0.16797,0.617188 0,0.261719 0.0553,0.468099 0.16602,0.61914 0.11198,0.14974 0.26497,0.22461 0.45898,0.22461 0.19141,0 0.3431,-0.07552 0.45508,-0.226563 0.11198,-0.151041 0.16797,-0.35677 0.16797,-0.617187 0,-0.259113 -0.056,-0.464191 -0.16797,-0.615235 -0.11198,-0.152341 -0.26367,-0.228513 -0.45508,-0.228515 m 0,-0.304688 c 0.3125,3e-6 0.55794,0.101565 0.73633,0.304688 0.17838,0.203127 0.26758,0.484376 0.26758,0.84375 0,0.358073 -0.0892,0.639323 -0.26758,0.84375 -0.17839,0.203125 -0.42383,0.304687 -0.73633,0.304687 -0.3138,0 -0.55989,-0.101562 -0.73828,-0.304687 -0.17708,-0.204427 -0.26562,-0.485677 -0.26562,-0.84375 0,-0.359374 0.0885,-0.640623 0.26562,-0.84375 0.17839,-0.203123 0.42448,-0.304685 0.73828,-0.304688"
         style=""
         id="path5068" />
      <path
         d="m 342.83594,18.041684 0,1.320313 -0.35938,0 0,-1.308594 c 0,-0.20703 -0.0404,-0.361978 -0.12109,-0.464844 -0.0807,-0.102863 -0.20183,-0.154295 -0.36328,-0.154297 -0.19401,2e-6 -0.34701,0.06185 -0.45899,0.185547 -0.11198,0.1237 -0.16797,0.292319 -0.16797,0.50586 l 0,1.236328 -0.36132,0 0,-2.1875 0.36132,0 0,0.339843 c 0.0859,-0.131508 0.18685,-0.229815 0.30274,-0.294921 0.11719,-0.0651 0.25195,-0.09765 0.4043,-0.09766 0.2513,3e-6 0.4414,0.07813 0.57031,0.234375 0.1289,0.15495 0.19336,0.383465 0.19336,0.685547"
         style=""
         id="path5070" />
    </g>
    <g
       transform="matrix(4.9013924,0,0,4.9013924,-1589.6007,790.33335)"
       style="font-size:4px;font-style:normal;font-weight:normal;line-height:125%;letter-spacing:0px;word-spacing:0px;fill:#000000;fill-opacity:1;stroke:none;font-family:Sans"
       id="flowRoot4952">
      <path
         d="m 330.15234,16.854184 0,1.087891 1.08789,0 0,0.332031 -1.08789,0 0,1.087891 -0.32812,0 0,-1.087891 -1.08789,0 0,-0.332031 1.08789,0 0,-1.087891 0.32812,0"
         style=""
         id="path5073" />
      <path
         d="m 333.31445,17.174497 0.35938,0 0,2.1875 -0.35938,0 0,-2.1875 m 0,-0.851563 0.35938,0 0,0.455078 -0.35938,0 0,-0.455078"
         style=""
         id="path5075" />
      <path
         d="m 336.24219,18.041684 0,1.320313 -0.35938,0 0,-1.308594 c 0,-0.20703 -0.0404,-0.361978 -0.12109,-0.464844 -0.0807,-0.102863 -0.20183,-0.154295 -0.36328,-0.154297 -0.19401,2e-6 -0.34701,0.06185 -0.45899,0.185547 -0.11198,0.1237 -0.16797,0.292319 -0.16797,0.50586 l 0,1.236328 -0.36132,0 0,-2.1875 0.36132,0 0,0.339843 c 0.0859,-0.131508 0.18685,-0.229815 0.30274,-0.294921 0.11719,-0.0651 0.25195,-0.09765 0.4043,-0.09766 0.2513,3e-6 0.4414,0.07813 0.57031,0.234375 0.1289,0.15495 0.19336,0.383465 0.19336,0.685547"
         style=""
         id="path5077" />
      <path
         d="m 337.31836,16.553403 0,0.621094 0.74023,0 0,0.279297 -0.74023,0 0,1.1875 c 0,0.178385 0.0241,0.292969 0.0723,0.34375 0.0495,0.05078 0.14909,0.07617 0.29883,0.07617 l 0.36914,0 0,0.300782 -0.36914,0 c -0.27734,0 -0.46875,-0.05143 -0.57422,-0.154297 -0.10546,-0.104167 -0.1582,-0.292969 -0.1582,-0.566406 l 0,-1.1875 -0.26367,0 0,-0.279297 0.26367,0 0,-0.621094 0.36133,0"
         style=""
         id="path5079" />
      <path
         d="m 341.20117,17.23895 0,0.339844 c -0.10156,-0.05208 -0.20703,-0.09114 -0.3164,-0.117188 -0.10938,-0.02604 -0.22266,-0.03906 -0.33985,-0.03906 -0.17838,1e-6 -0.3125,0.02735 -0.40234,0.08203 -0.0885,0.05469 -0.13281,0.13672 -0.13281,0.246094 0,0.08333 0.0319,0.14909 0.0957,0.197265 0.0638,0.04688 0.19206,0.0918 0.38476,0.134766 l 0.12305,0.02734 c 0.25521,0.05469 0.4362,0.132162 0.54297,0.232421 0.10807,0.09896 0.16211,0.237631 0.16211,0.416016 0,0.203125 -0.0807,0.363933 -0.24219,0.482422 -0.16016,0.118489 -0.38086,0.177734 -0.66211,0.177734 -0.11719,0 -0.23958,-0.01172 -0.36719,-0.03516 -0.1263,-0.02213 -0.25976,-0.05599 -0.40039,-0.101562 l 0,-0.371094 c 0.13282,0.06901 0.26368,0.121094 0.39258,0.15625 0.12891,0.03385 0.25651,0.05078 0.38281,0.05078 0.16927,0 0.29948,-0.02865 0.39063,-0.08594 0.0911,-0.05859 0.13672,-0.140625 0.13672,-0.246094 0,-0.09766 -0.0332,-0.172526 -0.0996,-0.22461 -0.0651,-0.05208 -0.20899,-0.102212 -0.43164,-0.15039 l -0.125,-0.0293 c -0.22266,-0.04687 -0.38347,-0.118489 -0.48242,-0.214844 -0.099,-0.09765 -0.14844,-0.231118 -0.14844,-0.40039 0,-0.205728 0.0729,-0.364582 0.21875,-0.476563 0.14583,-0.111977 0.35286,-0.167966 0.62109,-0.167969 0.13281,3e-6 0.25781,0.0098 0.375,0.0293 0.11719,0.01953 0.22526,0.04883 0.32422,0.08789"
         style=""
         id="path5081" />
      <path
         d="m 341.89258,17.174497 0.35937,0 0,2.1875 -0.35937,0 0,-2.1875 m 0,-0.851563 0.35937,0 0,0.455078 -0.35937,0 0,-0.455078"
         style=""
         id="path5083" />
      <path
         d="m 344.44141,17.506528 0,-1.183594 0.35937,0 0,3.039063 -0.35937,0 0,-0.328125 c -0.0755,0.130208 -0.17123,0.227213 -0.28711,0.291015 -0.11459,0.0625 -0.25261,0.09375 -0.41407,0.09375 -0.26432,0 -0.47981,-0.105468 -0.64648,-0.316406 -0.16536,-0.210937 -0.24805,-0.48828 -0.24805,-0.832031 0,-0.343749 0.0827,-0.621092 0.24805,-0.832031 0.16667,-0.210936 0.38216,-0.316404 0.64648,-0.316407 0.16146,3e-6 0.29948,0.0319 0.41407,0.0957 0.11588,0.0625 0.21158,0.158857 0.28711,0.289063 M 343.2168,18.2702 c 0,0.264324 0.054,0.472006 0.16211,0.623047 0.10937,0.14974 0.25911,0.224609 0.44921,0.224609 0.19011,0 0.33985,-0.07487 0.44922,-0.224609 0.10938,-0.151041 0.16406,-0.358723 0.16407,-0.623047 -1e-5,-0.264322 -0.0547,-0.471353 -0.16407,-0.621094 -0.10937,-0.15104 -0.25911,-0.226561 -0.44922,-0.226562 -0.1901,1e-6 -0.33984,0.07552 -0.44921,0.226562 -0.10808,0.149741 -0.16211,0.356772 -0.16211,0.621094"
         style=""
         id="path5085" />
      <path
         d="m 347.41211,18.178403 0,0.175781 -1.65234,0 c 0.0156,0.247397 0.0898,0.436199 0.22265,0.566406 0.13412,0.128907 0.32031,0.19336 0.5586,0.19336 0.13801,0 0.27148,-0.01693 0.40039,-0.05078 0.1302,-0.03385 0.25911,-0.08464 0.38671,-0.152344 l 0,0.339844 c -0.1289,0.05469 -0.26106,0.09635 -0.39648,0.125 -0.13542,0.02865 -0.27279,0.04297 -0.41211,0.04297 -0.34896,0 -0.62565,-0.101562 -0.83008,-0.304687 -0.20312,-0.203125 -0.30468,-0.477864 -0.30468,-0.824219 0,-0.358071 0.0963,-0.641925 0.28906,-0.851562 0.19401,-0.210936 0.45508,-0.316404 0.7832,-0.316407 0.29427,3e-6 0.52669,0.09505 0.69727,0.285157 0.17187,0.188803 0.25781,0.445965 0.25781,0.771484 m -0.35938,-0.105469 c -0.003,-0.196613 -0.0579,-0.353514 -0.16601,-0.470703 -0.10677,-0.117186 -0.2487,-0.175779 -0.42578,-0.175781 -0.20052,2e-6 -0.36133,0.05664 -0.48242,0.169922 -0.1198,0.113283 -0.18881,0.272788 -0.20704,0.478515 l 1.28125,-0.002"
         style=""
         id="path5087" />
    </g>
    <path
       inkscape:connector-curvature="0"
       id="path4964"
       d="m 13.055409,895.89863 267.317901,0"
       style="fill:none;stroke:#000000;stroke-width:5;stroke-linecap:butt;stroke-linejoin:miter;stroke-miterlimit:4;stroke-opacity:1;stroke-dasharray:none" />
    <path
       style="fill:none;stroke:#000000;stroke-width:5;stroke-linecap:butt;stroke-linejoin:miter;stroke-miterlimit:4;stroke-opacity:1;stroke-dasharray:none"
       d="m 13.055409,861.88244 267.317901,0"
       id="path4978"
       inkscape:connector-curvature="0" />
    <g
       transform="matrix(4.9013924,0,0,4.9013924,-986.55632,759.48268)"
       style="font-size:4px;font-style:normal;font-weight:normal;line-height:125%;letter-spacing:0px;word-spacing:0px;fill:#000000;fill-opacity:1;stroke:none;font-family:Sans"
       id="flowRoot4982">
      <path
         d="m 329.67969,16.834653 -0.53516,1.451172 1.07227,0 -0.53711,-1.451172 m -0.22266,-0.388672 0.44727,0 1.11132,2.916016 -0.41015,0 -0.26563,-0.748047 -1.31445,0 -0.26562,0.748047 -0.41602,0 1.11328,-2.916016"
         style=""
         id="path5298" />
      <path
         d="m 332.92773,17.258481 0,0.335938 c -0.10156,-0.05599 -0.20377,-0.09765 -0.30664,-0.125 -0.10156,-0.02864 -0.20442,-0.04297 -0.30859,-0.04297 -0.23307,2e-6 -0.41406,0.07422 -0.54297,0.222656 -0.12891,0.147137 -0.19336,0.354168 -0.19336,0.621094 0,0.266928 0.0645,0.47461 0.19336,0.623047 0.12891,0.147135 0.3099,0.220703 0.54297,0.220703 0.10417,0 0.20703,-0.01367 0.30859,-0.04102 0.10287,-0.02865 0.20508,-0.07096 0.30664,-0.126953 l 0,0.332031 c -0.10026,0.04687 -0.20442,0.08203 -0.3125,0.105469 -0.10677,0.02344 -0.2207,0.03516 -0.34179,0.03516 -0.32943,0 -0.59115,-0.103515 -0.78516,-0.310547 -0.19401,-0.20703 -0.29101,-0.486327 -0.29101,-0.83789 0,-0.35677 0.0976,-0.637368 0.29296,-0.841797 0.19662,-0.204425 0.4655,-0.306638 0.80664,-0.306641 0.11068,3e-6 0.21875,0.01172 0.32422,0.03516 0.10547,0.02214 0.20768,0.05599 0.30664,0.101562"
         style=""
         id="path5300" />
      <path
         d="m 333.91211,16.553403 0,0.621094 0.74023,0 0,0.279297 -0.74023,0 0,1.1875 c 0,0.178385 0.0241,0.292969 0.0723,0.34375 0.0495,0.05078 0.14909,0.07617 0.29883,0.07617 l 0.36914,0 0,0.300782 -0.36914,0 c -0.27734,0 -0.46875,-0.05143 -0.57422,-0.154297 -0.10546,-0.104167 -0.1582,-0.292969 -0.1582,-0.566406 l 0,-1.1875 -0.26367,0 0,-0.279297 0.26367,0 0,-0.621094 0.36133,0"
         style=""
         id="path5302" />
      <path
         d="m 335.97461,17.42645 c -0.19271,2e-6 -0.34505,0.07552 -0.45703,0.226562 -0.11198,0.149741 -0.16797,0.35547 -0.16797,0.617188 0,0.261719 0.0553,0.468099 0.16601,0.61914 0.11198,0.14974 0.26498,0.22461 0.45899,0.22461 0.1914,0 0.3431,-0.07552 0.45508,-0.226563 0.11197,-0.151041 0.16796,-0.35677 0.16797,-0.617187 -1e-5,-0.259113 -0.056,-0.464191 -0.16797,-0.615235 -0.11198,-0.152341 -0.26368,-0.228513 -0.45508,-0.228515 m 0,-0.304688 c 0.3125,3e-6 0.55794,0.101565 0.73633,0.304688 0.17838,0.203127 0.26757,0.484376 0.26758,0.84375 -10e-6,0.358073 -0.0892,0.639323 -0.26758,0.84375 -0.17839,0.203125 -0.42383,0.304687 -0.73633,0.304687 -0.3138,0 -0.5599,-0.101562 -0.73828,-0.304687 -0.17709,-0.204427 -0.26563,-0.485677 -0.26563,-0.84375 0,-0.359374 0.0885,-0.640623 0.26563,-0.84375 0.17838,-0.203123 0.42448,-0.304685 0.73828,-0.304688"
         style=""
         id="path5304" />
      <path
         d="m 338.83984,17.510434 c -0.0404,-0.02343 -0.0846,-0.04036 -0.13281,-0.05078 -0.0469,-0.01172 -0.099,-0.01758 -0.15625,-0.01758 -0.20312,2e-6 -0.35937,0.06641 -0.46875,0.199219 -0.10807,0.131512 -0.16211,0.320964 -0.16211,0.568359 l 0,1.152344 -0.36133,0 0,-2.1875 0.36133,0 0,0.339843 c 0.0755,-0.13281 0.17383,-0.231117 0.29492,-0.294921 0.1211,-0.0651 0.26823,-0.09765 0.44141,-0.09766 0.0247,3e-6 0.0521,0.002 0.082,0.0059 0.03,0.0026 0.0632,0.0072 0.0996,0.01367 l 0.002,0.36914"
         style=""
         id="path5306" />
    </g>
    <g
       transform="matrix(4.9013924,0,0,4.9013924,-1088.2319,790.33335)"
       style="font-size:4px;font-style:normal;font-weight:normal;line-height:125%;letter-spacing:0px;word-spacing:0px;fill:#000000;fill-opacity:1;stroke:none;font-family:Sans"
       id="flowRoot4990">
      <path
         d="m 330.15234,16.854184 0,1.087891 1.08789,0 0,0.332031 -1.08789,0 0,1.087891 -0.32812,0 0,-1.087891 -1.08789,0 0,-0.332031 1.08789,0 0,-1.087891 0.32812,0"
         style=""
         id="path5215" />
      <path
         d="m 333.31445,17.174497 0.35938,0 0,2.1875 -0.35938,0 0,-2.1875 m 0,-0.851563 0.35938,0 0,0.455078 -0.35938,0 0,-0.455078"
         style=""
         id="path5217" />
      <path
         d="m 336.24219,18.041684 0,1.320313 -0.35938,0 0,-1.308594 c 0,-0.20703 -0.0404,-0.361978 -0.12109,-0.464844 -0.0807,-0.102863 -0.20183,-0.154295 -0.36328,-0.154297 -0.19401,2e-6 -0.34701,0.06185 -0.45899,0.185547 -0.11198,0.1237 -0.16797,0.292319 -0.16797,0.50586 l 0,1.236328 -0.36132,0 0,-2.1875 0.36132,0 0,0.339843 c 0.0859,-0.131508 0.18685,-0.229815 0.30274,-0.294921 0.11719,-0.0651 0.25195,-0.09765 0.4043,-0.09766 0.2513,3e-6 0.4414,0.07813 0.57031,0.234375 0.1289,0.15495 0.19336,0.383465 0.19336,0.685547"
         style=""
         id="path5219" />
      <path
         d="m 337.31836,16.553403 0,0.621094 0.74023,0 0,0.279297 -0.74023,0 0,1.1875 c 0,0.178385 0.0241,0.292969 0.0723,0.34375 0.0495,0.05078 0.14909,0.07617 0.29883,0.07617 l 0.36914,0 0,0.300782 -0.36914,0 c -0.27734,0 -0.46875,-0.05143 -0.57422,-0.154297 -0.10546,-0.104167 -0.1582,-0.292969 -0.1582,-0.566406 l 0,-1.1875 -0.26367,0 0,-0.279297 0.26367,0 0,-0.621094 0.36133,0"
         style=""
         id="path5221" />
      <path
         d="m 339.59766,17.174497 0.35937,0 0.44922,1.707031 0.44727,-1.707031 0.42382,0 0.44922,1.707031 0.44727,-1.707031 0.35937,0 -0.57226,2.1875 -0.42383,0 -0.4707,-1.792969 -0.47266,1.792969 -0.42383,0 -0.57226,-2.1875"
         style=""
         id="path5223" />
      <path
         d="m 343.08008,17.174497 0.35937,0 0,2.1875 -0.35937,0 0,-2.1875 m 0,-0.851563 0.35937,0 0,0.455078 -0.35937,0 0,-0.455078"
         style=""
         id="path5225" />
      <path
         d="m 345.62891,17.506528 0,-1.183594 0.35937,0 0,3.039063 -0.35937,0 0,-0.328125 c -0.0755,0.130208 -0.17123,0.227213 -0.28711,0.291015 -0.11459,0.0625 -0.25261,0.09375 -0.41407,0.09375 -0.26432,0 -0.47981,-0.105468 -0.64648,-0.316406 -0.16536,-0.210937 -0.24805,-0.48828 -0.24805,-0.832031 0,-0.343749 0.0827,-0.621092 0.24805,-0.832031 0.16667,-0.210936 0.38216,-0.316404 0.64648,-0.316407 0.16146,3e-6 0.29948,0.0319 0.41407,0.0957 0.11588,0.0625 0.21158,0.158857 0.28711,0.289063 M 344.4043,18.2702 c 0,0.264324 0.054,0.472006 0.16211,0.623047 0.10937,0.14974 0.25911,0.224609 0.44921,0.224609 0.19011,0 0.33985,-0.07487 0.44922,-0.224609 0.10938,-0.151041 0.16406,-0.358723 0.16407,-0.623047 -1e-5,-0.264322 -0.0547,-0.471353 -0.16407,-0.621094 -0.10937,-0.15104 -0.25911,-0.226561 -0.44922,-0.226562 -0.1901,1e-6 -0.33984,0.07552 -0.44921,0.226562 -0.10808,0.149741 -0.16211,0.356772 -0.16211,0.621094"
         style=""
         id="path5227" />
      <path
         d="m 347.08398,16.553403 0,0.621094 0.74024,0 0,0.279297 -0.74024,0 0,1.1875 c 0,0.178385 0.0241,0.292969 0.0723,0.34375 0.0495,0.05078 0.14909,0.07617 0.29883,0.07617 l 0.36914,0 0,0.300782 -0.36914,0 c -0.27735,0 -0.46875,-0.05143 -0.57422,-0.154297 -0.10547,-0.104167 -0.1582,-0.292969 -0.1582,-0.566406 l 0,-1.1875 -0.26368,0 0,-0.279297 0.26368,0 0,-0.621094 0.36132,0"
         style=""
         id="path5229" />
      <path
         d="m 350.11719,18.041684 0,1.320313 -0.35938,0 0,-1.308594 c 0,-0.20703 -0.0404,-0.361978 -0.12109,-0.464844 -0.0807,-0.102863 -0.20183,-0.154295 -0.36328,-0.154297 -0.19401,2e-6 -0.34701,0.06185 -0.45899,0.185547 -0.11198,0.1237 -0.16797,0.292319 -0.16797,0.50586 l 0,1.236328 -0.36132,0 0,-3.039063 0.36132,0 0,1.191406 c 0.0859,-0.131508 0.18685,-0.229815 0.30274,-0.294921 0.11719,-0.0651 0.25195,-0.09765 0.4043,-0.09766 0.2513,3e-6 0.4414,0.07813 0.57031,0.234375 0.1289,0.15495 0.19336,0.383465 0.19336,0.685547"
         style=""
         id="path5231" />
      <path
         d="m 330.15234,21.854184 0,1.087891 1.08789,0 0,0.332031 -1.08789,0 0,1.087891 -0.32812,0 0,-1.087891 -1.08789,0 0,-0.332031 1.08789,0 0,-1.087891 0.32812,0"
         style=""
         id="path5233" />
      <path
         d="m 333.31445,22.174497 0.35938,0 0,2.1875 -0.35938,0 0,-2.1875 m 0,-0.851563 0.35938,0 0,0.455078 -0.35938,0 0,-0.455078"
         style=""
         id="path5235" />
      <path
         d="m 336.24219,23.041684 0,1.320313 -0.35938,0 0,-1.308594 c 0,-0.20703 -0.0404,-0.361978 -0.12109,-0.464844 -0.0807,-0.102863 -0.20183,-0.154295 -0.36328,-0.154297 -0.19401,2e-6 -0.34701,0.06185 -0.45899,0.185547 -0.11198,0.1237 -0.16797,0.292319 -0.16797,0.50586 l 0,1.236328 -0.36132,0 0,-2.1875 0.36132,0 0,0.339843 c 0.0859,-0.131508 0.18685,-0.229815 0.30274,-0.294921 0.11719,-0.0651 0.25195,-0.09765 0.4043,-0.09766 0.2513,3e-6 0.4414,0.07813 0.57031,0.234375 0.1289,0.15495 0.19336,0.383465 0.19336,0.685547"
         style=""
         id="path5237" />
      <path
         d="m 337.31836,21.553403 0,0.621094 0.74023,0 0,0.279297 -0.74023,0 0,1.1875 c 0,0.178385 0.0241,0.292969 0.0723,0.34375 0.0495,0.05078 0.14909,0.07617 0.29883,0.07617 l 0.36914,0 0,0.300782 -0.36914,0 c -0.27734,0 -0.46875,-0.05143 -0.57422,-0.154297 -0.10546,-0.104167 -0.1582,-0.292969 -0.1582,-0.566406 l 0,-1.1875 -0.26367,0 0,-0.279297 0.26367,0 0,-0.621094 0.36133,0"
         style=""
         id="path5239" />
      <path
         d="m 341.625,23.041684 0,1.320313 -0.35938,0 0,-1.308594 c 0,-0.20703 -0.0404,-0.361978 -0.12109,-0.464844 -0.0807,-0.102863 -0.20182,-0.154295 -0.36328,-0.154297 -0.19401,2e-6 -0.34701,0.06185 -0.45898,0.185547 -0.11198,0.1237 -0.16797,0.292319 -0.16797,0.50586 l 0,1.236328 -0.36133,0 0,-3.039063 0.36133,0 0,1.191406 c 0.0859,-0.131508 0.18684,-0.229815 0.30273,-0.294921 0.11719,-0.0651 0.25195,-0.09765 0.4043,-0.09766 0.2513,3e-6 0.4414,0.07813 0.57031,0.234375 0.1289,0.15495 0.19336,0.383465 0.19336,0.685547"
         style=""
         id="path5241" />
      <path
         d="m 344.2168,23.178403 0,0.175781 -1.65235,0 c 0.0156,0.247397 0.0898,0.436199 0.22266,0.566406 0.13411,0.128907 0.32031,0.19336 0.55859,0.19336 0.13802,0 0.27149,-0.01693 0.40039,-0.05078 0.13021,-0.03385 0.25912,-0.08464 0.38672,-0.152344 l 0,0.339844 c -0.12891,0.05469 -0.26107,0.09635 -0.39648,0.125 -0.13542,0.02865 -0.27279,0.04297 -0.41211,0.04297 -0.34896,0 -0.62565,-0.101562 -0.83008,-0.304687 -0.20312,-0.203125 -0.30469,-0.477864 -0.30469,-0.824219 0,-0.358071 0.0964,-0.641925 0.28907,-0.851562 0.19401,-0.210936 0.45507,-0.316404 0.7832,-0.316407 0.29427,3e-6 0.52669,0.09505 0.69726,0.285157 0.17188,0.188803 0.25781,0.445965 0.25782,0.771484 m -0.35938,-0.105469 c -0.003,-0.196613 -0.0579,-0.353514 -0.16601,-0.470703 -0.10678,-0.117186 -0.2487,-0.175779 -0.42579,-0.175781 -0.20052,2e-6 -0.36132,0.05664 -0.48242,0.169922 -0.11979,0.113283 -0.1888,0.272788 -0.20703,0.478515 l 1.28125,-0.002"
         style=""
         id="path5243" />
      <path
         d="m 344.80664,22.174497 0.35938,0 0,2.1875 -0.35938,0 0,-2.1875 m 0,-0.851563 0.35938,0 0,0.455078 -0.35938,0 0,-0.455078"
         style=""
         id="path5245" />
      <path
         d="m 347.35547,23.242856 c 0,-0.260415 -0.054,-0.462238 -0.16211,-0.605469 -0.10677,-0.143227 -0.25716,-0.214842 -0.45117,-0.214843 -0.19271,1e-6 -0.3431,0.07162 -0.45117,0.214843 -0.10678,0.143231 -0.16016,0.345054 -0.16016,0.605469 0,0.259115 0.0534,0.460287 0.16016,0.603516 0.10807,0.143229 0.25846,0.214844 0.45117,0.214843 0.19401,1e-6 0.3444,-0.07161 0.45117,-0.214843 0.10807,-0.143229 0.16211,-0.344401 0.16211,-0.603516 m 0.35937,0.847656 c 0,0.372396 -0.0827,0.649088 -0.24804,0.830078 -0.16537,0.182291 -0.41862,0.273437 -0.75977,0.273438 -0.1263,-1e-6 -0.24544,-0.0098 -0.35742,-0.0293 -0.11198,-0.01823 -0.2207,-0.04688 -0.32617,-0.08594 l 0,-0.34961 c 0.10547,0.05729 0.20963,0.09961 0.3125,0.126953 0.10286,0.02734 0.20768,0.04101 0.31445,0.04102 0.23568,-1e-6 0.41211,-0.06185 0.5293,-0.185547 0.11718,-0.122396 0.17578,-0.307943 0.17578,-0.556641 l 0,-0.177734 c -0.0742,0.128907 -0.16927,0.225261 -0.28516,0.289063 -0.11588,0.0638 -0.25456,0.0957 -0.41601,0.0957 -0.26823,0 -0.48438,-0.102214 -0.64844,-0.306641 -0.16406,-0.204427 -0.24609,-0.47526 -0.24609,-0.8125 0,-0.33854 0.082,-0.610024 0.24609,-0.814453 0.16406,-0.204425 0.38021,-0.306638 0.64844,-0.306641 0.16145,3e-6 0.30013,0.0319 0.41601,0.0957 0.11589,0.0638 0.21094,0.160159 0.28516,0.289063 l 0,-0.332031 0.35937,0 0,1.916015"
         style=""
         id="path5247" />
      <path
         d="m 350.27344,23.041684 0,1.320313 -0.35938,0 0,-1.308594 c 0,-0.20703 -0.0404,-0.361978 -0.12109,-0.464844 -0.0807,-0.102863 -0.20183,-0.154295 -0.36328,-0.154297 -0.19401,2e-6 -0.34701,0.06185 -0.45899,0.185547 -0.11198,0.1237 -0.16797,0.292319 -0.16797,0.50586 l 0,1.236328 -0.36132,0 0,-3.039063 0.36132,0 0,1.191406 c 0.0859,-0.131508 0.18685,-0.229815 0.30274,-0.294921 0.11719,-0.0651 0.25195,-0.09765 0.4043,-0.09766 0.2513,3e-6 0.4414,0.07813 0.57031,0.234375 0.1289,0.15495 0.19336,0.383465 0.19336,0.685547"
         style=""
         id="path5249" />
      <path
         d="m 351.34961,21.553403 0,0.621094 0.74023,0 0,0.279297 -0.74023,0 0,1.1875 c 0,0.178385 0.0241,0.292969 0.0723,0.34375 0.0495,0.05078 0.14909,0.07617 0.29883,0.07617 l 0.36914,0 0,0.300782 -0.36914,0 c -0.27734,0 -0.46875,-0.05143 -0.57422,-0.154297 -0.10546,-0.104167 -0.1582,-0.292969 -0.1582,-0.566406 l 0,-1.1875 -0.26367,0 0,-0.279297 0.26367,0 0,-0.621094 0.36133,0"
         style=""
         id="path5251" />
      <path
         d="m 330.15234,26.854184 0,1.087891 1.08789,0 0,0.332031 -1.08789,0 0,1.087891 -0.32812,0 0,-1.087891 -1.08789,0 0,-0.332031 1.08789,0 0,-1.087891 0.32812,0"
         style=""
         id="path5253" />
      <path
         d="m 333.31445,27.174497 0.35938,0 0,2.1875 -0.35938,0 0,-2.1875 m 0,-0.851563 0.35938,0 0,0.455078 -0.35938,0 0,-0.455078"
         style=""
         id="path5255" />
      <path
         d="m 336.24219,28.041684 0,1.320313 -0.35938,0 0,-1.308594 c 0,-0.20703 -0.0404,-0.361978 -0.12109,-0.464844 -0.0807,-0.102863 -0.20183,-0.154295 -0.36328,-0.154297 -0.19401,2e-6 -0.34701,0.06185 -0.45899,0.185547 -0.11198,0.1237 -0.16797,0.292319 -0.16797,0.50586 l 0,1.236328 -0.36132,0 0,-2.1875 0.36132,0 0,0.339843 c 0.0859,-0.131508 0.18685,-0.229815 0.30274,-0.294921 0.11719,-0.0651 0.25195,-0.09765 0.4043,-0.09766 0.2513,3e-6 0.4414,0.07813 0.57031,0.234375 0.1289,0.15495 0.19336,0.383465 0.19336,0.685547"
         style=""
         id="path5257" />
      <path
         d="m 337.31836,26.553403 0,0.621094 0.74023,0 0,0.279297 -0.74023,0 0,1.1875 c 0,0.178385 0.0241,0.292969 0.0723,0.34375 0.0495,0.05078 0.14909,0.07617 0.29883,0.07617 l 0.36914,0 0,0.300782 -0.36914,0 c -0.27734,0 -0.46875,-0.05143 -0.57422,-0.154297 -0.10546,-0.104167 -0.1582,-0.292969 -0.1582,-0.566406 l 0,-1.1875 -0.26367,0 0,-0.279297 0.26367,0 0,-0.621094 0.36133,0"
         style=""
         id="path5259" />
      <path
         d="m 341.24609,27.506528 0,-1.183594 0.35938,0 0,3.039063 -0.35938,0 0,-0.328125 c -0.0755,0.130208 -0.17122,0.227213 -0.28711,0.291015 -0.11458,0.0625 -0.2526,0.09375 -0.41406,0.09375 -0.26432,0 -0.47982,-0.105468 -0.64648,-0.316406 -0.16537,-0.210937 -0.24805,-0.48828 -0.24805,-0.832031 0,-0.343749 0.0827,-0.621092 0.24805,-0.832031 0.16666,-0.210936 0.38216,-0.316404 0.64648,-0.316407 0.16146,3e-6 0.29948,0.0319 0.41406,0.0957 0.11589,0.0625 0.21159,0.158857 0.28711,0.289063 m -1.22461,0.763672 c 0,0.264324 0.054,0.472006 0.16211,0.623047 0.10938,0.14974 0.25912,0.224609 0.44922,0.224609 0.19011,0 0.33984,-0.07487 0.44922,-0.224609 0.10937,-0.151041 0.16406,-0.358723 0.16406,-0.623047 0,-0.264322 -0.0547,-0.471353 -0.16406,-0.621094 -0.10938,-0.15104 -0.25911,-0.226561 -0.44922,-0.226562 -0.1901,1e-6 -0.33984,0.07552 -0.44922,0.226562 -0.10807,0.149741 -0.16211,0.356772 -0.16211,0.621094"
         style=""
         id="path5261" />
      <path
         d="m 342.3457,27.174497 0.35938,0 0,2.1875 -0.35938,0 0,-2.1875 m 0,-0.851563 0.35938,0 0,0.455078 -0.35938,0 0,-0.455078"
         style=""
         id="path5263" />
      <path
         d="m 344.72266,27.510434 c -0.0404,-0.02343 -0.0846,-0.04036 -0.13282,-0.05078 -0.0469,-0.01172 -0.099,-0.01758 -0.15625,-0.01758 -0.20312,2e-6 -0.35937,0.06641 -0.46875,0.199219 -0.10807,0.131512 -0.16211,0.320964 -0.16211,0.568359 l 0,1.152344 -0.36132,0 0,-2.1875 0.36132,0 0,0.339843 c 0.0755,-0.13281 0.17383,-0.231117 0.29493,-0.294921 0.12109,-0.0651 0.26822,-0.09765 0.4414,-0.09766 0.0247,3e-6 0.0521,0.002 0.082,0.0059 0.03,0.0026 0.0632,0.0072 0.0996,0.01367 l 0.002,0.36914"
         style=""
         id="path5265" />
      <path
         d="m 346.88867,28.178403 0,0.175781 -1.65234,0 c 0.0156,0.247397 0.0898,0.436199 0.22265,0.566406 0.13412,0.128907 0.32032,0.19336 0.5586,0.19336 0.13802,0 0.27148,-0.01693 0.40039,-0.05078 0.13021,-0.03385 0.25911,-0.08464 0.38672,-0.152344 l 0,0.339844 c -0.12891,0.05469 -0.26107,0.09635 -0.39649,0.125 -0.13542,0.02865 -0.27278,0.04297 -0.41211,0.04297 -0.34896,0 -0.62565,-0.101562 -0.83007,-0.304687 -0.20313,-0.203125 -0.30469,-0.477864 -0.30469,-0.824219 0,-0.358071 0.0963,-0.641925 0.28906,-0.851562 0.19401,-0.210936 0.45508,-0.316404 0.7832,-0.316407 0.29427,3e-6 0.52669,0.09505 0.69727,0.285157 0.17187,0.188803 0.25781,0.445965 0.25781,0.771484 m -0.35937,-0.105469 c -0.003,-0.196613 -0.058,-0.353514 -0.16602,-0.470703 -0.10677,-0.117186 -0.2487,-0.175779 -0.42578,-0.175781 -0.20052,2e-6 -0.36133,0.05664 -0.48242,0.169922 -0.11979,0.113283 -0.1888,0.272788 -0.20703,0.478515 l 1.28125,-0.002"
         style=""
         id="path5267" />
      <path
         d="m 349.05273,27.258481 0,0.335938 c -0.10156,-0.05599 -0.20377,-0.09765 -0.30664,-0.125 -0.10156,-0.02864 -0.20442,-0.04297 -0.30859,-0.04297 -0.23307,2e-6 -0.41406,0.07422 -0.54297,0.222656 -0.12891,0.147137 -0.19336,0.354168 -0.19336,0.621094 0,0.266928 0.0645,0.47461 0.19336,0.623047 0.12891,0.147135 0.3099,0.220703 0.54297,0.220703 0.10417,0 0.20703,-0.01367 0.30859,-0.04102 0.10287,-0.02865 0.20508,-0.07096 0.30664,-0.126953 l 0,0.332031 c -0.10026,0.04687 -0.20442,0.08203 -0.3125,0.105469 -0.10677,0.02344 -0.2207,0.03516 -0.34179,0.03516 -0.32943,0 -0.59115,-0.103515 -0.78516,-0.310547 -0.19401,-0.20703 -0.29101,-0.486327 -0.29101,-0.83789 0,-0.35677 0.0976,-0.637368 0.29296,-0.841797 0.19662,-0.204425 0.4655,-0.306638 0.80664,-0.306641 0.11068,3e-6 0.21875,0.01172 0.32422,0.03516 0.10547,0.02214 0.20768,0.05599 0.30664,0.101562"
         style=""
         id="path5269" />
      <path
         d="m 350.03711,26.553403 0,0.621094 0.74023,0 0,0.279297 -0.74023,0 0,1.1875 c 0,0.178385 0.0241,0.292969 0.0723,0.34375 0.0495,0.05078 0.14909,0.07617 0.29883,0.07617 l 0.36914,0 0,0.300782 -0.36914,0 c -0.27734,0 -0.46875,-0.05143 -0.57422,-0.154297 -0.10546,-0.104167 -0.1582,-0.292969 -0.1582,-0.566406 l 0,-1.1875 -0.26367,0 0,-0.279297 0.26367,0 0,-0.621094 0.36133,0"
         style=""
         id="path5271" />
      <path
         d="m 351.25195,27.174497 0.35938,0 0,2.1875 -0.35938,0 0,-2.1875 m 0,-0.851563 0.35938,0 0,0.455078 -0.35938,0 0,-0.455078"
         style=""
         id="path5273" />
      <path
         d="m 353.20898,27.42645 c -0.1927,2e-6 -0.34505,0.07552 -0.45703,0.226562 -0.11198,0.149741 -0.16797,0.35547 -0.16797,0.617188 0,0.261719 0.0553,0.468099 0.16602,0.61914 0.11198,0.14974 0.26497,0.22461 0.45898,0.22461 0.19141,0 0.3431,-0.07552 0.45508,-0.226563 0.11198,-0.151041 0.16797,-0.35677 0.16797,-0.617187 0,-0.259113 -0.056,-0.464191 -0.16797,-0.615235 -0.11198,-0.152341 -0.26367,-0.228513 -0.45508,-0.228515 m 0,-0.304688 c 0.3125,3e-6 0.55795,0.101565 0.73633,0.304688 0.17839,0.203127 0.26758,0.484376 0.26758,0.84375 0,0.358073 -0.0892,0.639323 -0.26758,0.84375 -0.17838,0.203125 -0.42383,0.304687 -0.73633,0.304687 -0.3138,0 -0.55989,-0.101562 -0.73828,-0.304687 -0.17708,-0.204427 -0.26562,-0.485677 -0.26562,-0.84375 0,-0.359374 0.0885,-0.640623 0.26562,-0.84375 0.17839,-0.203123 0.42448,-0.304685 0.73828,-0.304688"
         style=""
         id="path5275" />
      <path
         d="m 356.625,28.041684 0,1.320313 -0.35938,0 0,-1.308594 c 0,-0.20703 -0.0404,-0.361978 -0.12109,-0.464844 -0.0807,-0.102863 -0.20182,-0.154295 -0.36328,-0.154297 -0.19401,2e-6 -0.34701,0.06185 -0.45898,0.185547 -0.11198,0.1237 -0.16797,0.292319 -0.16797,0.50586 l 0,1.236328 -0.36133,0 0,-2.1875 0.36133,0 0,0.339843 c 0.0859,-0.131508 0.18684,-0.229815 0.30273,-0.294921 0.11719,-0.0651 0.25195,-0.09765 0.4043,-0.09766 0.2513,3e-6 0.4414,0.07813 0.57031,0.234375 0.1289,0.15495 0.19336,0.383465 0.19336,0.685547"
         style=""
         id="path5277" />
      <path
         d="m 330.15234,31.854184 0,1.087891 1.08789,0 0,0.332031 -1.08789,0 0,1.087891 -0.32812,0 0,-1.087891 -1.08789,0 0,-0.332031 1.08789,0 0,-1.087891 0.32812,0"
         style=""
         id="path5279" />
      <path
         d="m 333.31445,32.174497 0.35938,0 0,2.1875 -0.35938,0 0,-2.1875 m 0,-0.851563 0.35938,0 0,0.455078 -0.35938,0 0,-0.455078"
         style=""
         id="path5281" />
      <path
         d="m 336.24219,33.041684 0,1.320313 -0.35938,0 0,-1.308594 c 0,-0.20703 -0.0404,-0.361978 -0.12109,-0.464844 -0.0807,-0.102863 -0.20183,-0.154295 -0.36328,-0.154297 -0.19401,2e-6 -0.34701,0.06185 -0.45899,0.185547 -0.11198,0.1237 -0.16797,0.292319 -0.16797,0.50586 l 0,1.236328 -0.36132,0 0,-2.1875 0.36132,0 0,0.339843 c 0.0859,-0.131508 0.18685,-0.229815 0.30274,-0.294921 0.11719,-0.0651 0.25195,-0.09765 0.4043,-0.09766 0.2513,3e-6 0.4414,0.07813 0.57031,0.234375 0.1289,0.15495 0.19336,0.383465 0.19336,0.685547"
         style=""
         id="path5283" />
      <path
         d="m 337.31836,31.553403 0,0.621094 0.74023,0 0,0.279297 -0.74023,0 0,1.1875 c 0,0.178385 0.0241,0.292969 0.0723,0.34375 0.0495,0.05078 0.14909,0.07617 0.29883,0.07617 l 0.36914,0 0,0.300782 -0.36914,0 c -0.27734,0 -0.46875,-0.05143 -0.57422,-0.154297 -0.10546,-0.104167 -0.1582,-0.292969 -0.1582,-0.566406 l 0,-1.1875 -0.26367,0 0,-0.279297 0.26367,0 0,-0.621094 0.36133,0"
         style=""
         id="path5285" />
      <path
         d="m 341.20117,32.23895 0,0.339844 c -0.10156,-0.05208 -0.20703,-0.09114 -0.3164,-0.117188 -0.10938,-0.02604 -0.22266,-0.03906 -0.33985,-0.03906 -0.17838,10e-7 -0.3125,0.02734 -0.40234,0.08203 -0.0885,0.05469 -0.13281,0.13672 -0.13281,0.246094 0,0.08333 0.0319,0.14909 0.0957,0.197265 0.0638,0.04688 0.19206,0.0918 0.38476,0.134766 l 0.12305,0.02734 c 0.25521,0.05469 0.4362,0.132162 0.54297,0.232421 0.10807,0.09896 0.16211,0.237631 0.16211,0.416016 0,0.203125 -0.0807,0.363933 -0.24219,0.482422 -0.16016,0.118489 -0.38086,0.177734 -0.66211,0.177734 -0.11719,0 -0.23958,-0.01172 -0.36719,-0.03516 -0.1263,-0.02214 -0.25976,-0.05599 -0.40039,-0.101562 l 0,-0.371094 c 0.13282,0.06901 0.26368,0.121094 0.39258,0.15625 0.12891,0.03385 0.25651,0.05078 0.38281,0.05078 0.16927,0 0.29948,-0.02865 0.39063,-0.08594 0.0911,-0.05859 0.13672,-0.140625 0.13672,-0.246094 0,-0.09766 -0.0332,-0.172526 -0.0996,-0.22461 -0.0651,-0.05208 -0.20899,-0.102212 -0.43164,-0.15039 l -0.125,-0.0293 c -0.22266,-0.04687 -0.38347,-0.118489 -0.48242,-0.214844 -0.099,-0.09765 -0.14844,-0.231118 -0.14844,-0.40039 0,-0.205728 0.0729,-0.364582 0.21875,-0.476563 0.14583,-0.111977 0.35286,-0.167966 0.62109,-0.167969 0.13281,3e-6 0.25781,0.0098 0.375,0.0293 0.11719,0.01953 0.22526,0.04883 0.32422,0.08789"
         style=""
         id="path5287" />
      <path
         d="m 342.24023,34.033872 0,1.160156 -0.36132,0 0,-3.019531 0.36132,0 0,0.332031 c 0.0755,-0.130206 0.17058,-0.226561 0.28516,-0.289063 0.11588,-0.0638 0.25391,-0.0957 0.41406,-0.0957 0.26563,3e-6 0.48112,0.105471 0.64649,0.316407 0.16666,0.210939 0.25,0.488282 0.25,0.832031 0,0.343751 -0.0833,0.621094 -0.25,0.832031 -0.16537,0.210938 -0.38086,0.316406 -0.64649,0.316406 -0.16015,0 -0.29818,-0.03125 -0.41406,-0.09375 -0.11458,-0.0638 -0.20964,-0.160807 -0.28516,-0.291015 m 1.22266,-0.763672 c 0,-0.264322 -0.0547,-0.471353 -0.16406,-0.621094 -0.10808,-0.15104 -0.25716,-0.226561 -0.44727,-0.226562 -0.1901,10e-7 -0.33984,0.07552 -0.44922,0.226562 -0.10807,0.149741 -0.16211,0.356772 -0.16211,0.621094 0,0.264324 0.054,0.472006 0.16211,0.623047 0.10938,0.14974 0.25912,0.224609 0.44922,0.224609 0.19011,0 0.33919,-0.07487 0.44727,-0.224609 0.10937,-0.151041 0.16406,-0.358723 0.16406,-0.623047"
         style=""
         id="path5289" />
      <path
         d="m 346.30273,33.178403 0,0.175781 -1.65234,0 c 0.0156,0.247397 0.0898,0.436199 0.22266,0.566406 0.13411,0.128907 0.32031,0.19336 0.55859,0.19336 0.13802,0 0.27148,-0.01693 0.40039,-0.05078 0.13021,-0.03385 0.25911,-0.08464 0.38672,-0.152344 l 0,0.339844 c -0.12891,0.05469 -0.26107,0.09635 -0.39648,0.125 -0.13542,0.02864 -0.27279,0.04297 -0.41211,0.04297 -0.34896,0 -0.62566,-0.101562 -0.83008,-0.304687 -0.20313,-0.203125 -0.30469,-0.477864 -0.30469,-0.824219 0,-0.358071 0.0963,-0.641925 0.28906,-0.851562 0.19401,-0.210936 0.45508,-0.316404 0.78321,-0.316407 0.29427,3e-6 0.52669,0.09505 0.69726,0.285157 0.17187,0.188803 0.25781,0.445965 0.25781,0.771484 m -0.35937,-0.105469 c -0.003,-0.196613 -0.058,-0.353514 -0.16602,-0.470703 -0.10677,-0.117186 -0.2487,-0.175779 -0.42578,-0.175781 -0.20052,2e-6 -0.36133,0.05664 -0.48242,0.169922 -0.11979,0.113283 -0.1888,0.272788 -0.20703,0.478515 l 1.28125,-0.002"
         style=""
         id="path5291" />
      <path
         d="m 348.76367,33.178403 0,0.175781 -1.65234,0 c 0.0156,0.247397 0.0898,0.436199 0.22265,0.566406 0.13412,0.128907 0.32032,0.19336 0.5586,0.19336 0.13802,0 0.27148,-0.01693 0.40039,-0.05078 0.13021,-0.03385 0.25911,-0.08464 0.38672,-0.152344 l 0,0.339844 c -0.12891,0.05469 -0.26107,0.09635 -0.39649,0.125 -0.13542,0.02864 -0.27278,0.04297 -0.41211,0.04297 -0.34896,0 -0.62565,-0.101562 -0.83007,-0.304687 -0.20313,-0.203125 -0.30469,-0.477864 -0.30469,-0.824219 0,-0.358071 0.0963,-0.641925 0.28906,-0.851562 0.19401,-0.210936 0.45508,-0.316404 0.7832,-0.316407 0.29427,3e-6 0.52669,0.09505 0.69727,0.285157 0.17187,0.188803 0.25781,0.445965 0.25781,0.771484 m -0.35937,-0.105469 c -0.003,-0.196613 -0.058,-0.353514 -0.16602,-0.470703 -0.10677,-0.117186 -0.2487,-0.175779 -0.42578,-0.175781 -0.20052,2e-6 -0.36133,0.05664 -0.48242,0.169922 -0.11979,0.113283 -0.1888,0.272788 -0.20703,0.478515 l 1.28125,-0.002"
         style=""
         id="path5293" />
      <path
         d="m 350.79297,32.506528 0,-1.183594 0.35937,0 0,3.039063 -0.35937,0 0,-0.328125 c -0.0755,0.130208 -0.17123,0.227213 -0.28711,0.291015 -0.11459,0.0625 -0.25261,0.09375 -0.41406,0.09375 -0.26433,0 -0.47982,-0.105468 -0.64649,-0.316406 -0.16536,-0.210937 -0.24804,-0.48828 -0.24804,-0.832031 0,-0.343749 0.0827,-0.621092 0.24804,-0.832031 0.16667,-0.210936 0.38216,-0.316404 0.64649,-0.316407 0.16145,3e-6 0.29947,0.0319 0.41406,0.0957 0.11588,0.0625 0.21159,0.158857 0.28711,0.289063 m -1.22461,0.763672 c 0,0.264324 0.054,0.472006 0.16211,0.623047 0.10937,0.14974 0.25911,0.224609 0.44922,0.224609 0.1901,0 0.33984,-0.07487 0.44922,-0.224609 0.10937,-0.151041 0.16406,-0.358723 0.16406,-0.623047 0,-0.264322 -0.0547,-0.471353 -0.16406,-0.621094 -0.10938,-0.15104 -0.25912,-0.226561 -0.44922,-0.226562 -0.19011,10e-7 -0.33985,0.07552 -0.44922,0.226562 -0.10807,0.149741 -0.16211,0.356772 -0.16211,0.621094"
         style=""
         id="path5295" />
    </g>
    <path
       style="fill:none;stroke:#000000;stroke-width:5;stroke-linecap:butt;stroke-linejoin:miter;stroke-miterlimit:4;stroke-opacity:1;stroke-dasharray:none"
       d="m 514.42419,980.20859 267.31789,0"
       id="path5002"
       inkscape:connector-curvature="0" />
    <g
       transform="matrix(4.9013924,0,0,4.9013924,-1088.2319,911.12157)"
       style="font-size:4px;font-style:normal;font-weight:normal;line-height:125%;letter-spacing:0px;word-spacing:0px;fill:#000000;fill-opacity:1;stroke:none;font-family:Sans"
       id="flowRoot5004">
      <path
         d="m 330.15234,16.854184 0,1.087891 1.08789,0 0,0.332031 -1.08789,0 0,1.087891 -0.32812,0 0,-1.087891 -1.08789,0 0,-0.332031 1.08789,0 0,-1.087891 0.32812,0"
         style=""
         id="path5309" />
      <path
         d="m 333.05664,17.174497 0.38086,0 0.68359,1.835937 0.6836,-1.835937 0.38086,0 -0.82032,2.1875 -0.48828,0 -0.82031,-2.1875"
         style=""
         id="path5311" />
      <path
         d="m 336.5293,17.42645 c -0.19271,2e-6 -0.34506,0.07552 -0.45703,0.226562 -0.11198,0.149741 -0.16797,0.35547 -0.16797,0.617188 0,0.261719 0.0553,0.468099 0.16601,0.61914 0.11198,0.14974 0.26498,0.22461 0.45899,0.22461 0.1914,0 0.34309,-0.07552 0.45507,-0.226563 0.11198,-0.151041 0.16797,-0.35677 0.16797,-0.617187 0,-0.259113 -0.056,-0.464191 -0.16797,-0.615235 -0.11198,-0.152341 -0.26367,-0.228513 -0.45507,-0.228515 m 0,-0.304688 c 0.3125,3e-6 0.55794,0.101565 0.73632,0.304688 0.17839,0.203127 0.26758,0.484376 0.26758,0.84375 0,0.358073 -0.0892,0.639323 -0.26758,0.84375 -0.17838,0.203125 -0.42382,0.304687 -0.73632,0.304687 -0.31381,0 -0.5599,-0.101562 -0.73828,-0.304687 -0.17709,-0.204427 -0.26563,-0.485677 -0.26563,-0.84375 0,-0.359374 0.0885,-0.640623 0.26563,-0.84375 0.17838,-0.203123 0.42447,-0.304685 0.73828,-0.304688"
         style=""
         id="path5313" />
      <path
         d="m 338.12695,17.174497 0.35938,0 0,2.1875 -0.35938,0 0,-2.1875 m 0,-0.851563 0.35938,0 0,0.455078 -0.35938,0 0,-0.455078"
         style=""
         id="path5315" />
      <path
         d="m 340.67578,17.506528 0,-1.183594 0.35938,0 0,3.039063 -0.35938,0 0,-0.328125 c -0.0755,0.130208 -0.17122,0.227213 -0.28711,0.291015 -0.11458,0.0625 -0.2526,0.09375 -0.41406,0.09375 -0.26432,0 -0.47982,-0.105468 -0.64649,-0.316406 -0.16536,-0.210937 -0.24804,-0.48828 -0.24804,-0.832031 0,-0.343749 0.0827,-0.621092 0.24804,-0.832031 0.16667,-0.210936 0.38217,-0.316404 0.64649,-0.316407 0.16146,3e-6 0.29948,0.0319 0.41406,0.0957 0.11589,0.0625 0.21159,0.158857 0.28711,0.289063 m -1.22461,0.763672 c 0,0.264324 0.054,0.472006 0.16211,0.623047 0.10938,0.14974 0.25911,0.224609 0.44922,0.224609 0.1901,0 0.33984,-0.07487 0.44922,-0.224609 0.10937,-0.151041 0.16406,-0.358723 0.16406,-0.623047 0,-0.264322 -0.0547,-0.471353 -0.16406,-0.621094 -0.10938,-0.15104 -0.25912,-0.226561 -0.44922,-0.226562 -0.19011,1e-6 -0.33984,0.07552 -0.44922,0.226562 -0.10807,0.149741 -0.16211,0.356772 -0.16211,0.621094"
         style=""
         id="path5317" />
      <path
         d="m 344.75195,17.594419 c 0.0898,-0.161457 0.19727,-0.280597 0.32227,-0.357422 0.125,-0.07682 0.27213,-0.115232 0.4414,-0.115235 0.22787,3e-6 0.40365,0.08008 0.52735,0.240235 0.12369,0.158856 0.18554,0.385418 0.18555,0.679687 l 0,1.320313 -0.36133,0 0,-1.308594 c -10e-6,-0.209634 -0.0371,-0.365233 -0.11133,-0.466797 -0.0742,-0.101561 -0.1875,-0.152342 -0.33984,-0.152344 -0.1862,2e-6 -0.33334,0.06185 -0.44141,0.185547 -0.10808,0.1237 -0.16211,0.292319 -0.16211,0.50586 l 0,1.236328 -0.36133,0 0,-1.308594 c 0,-0.210936 -0.0371,-0.366535 -0.11133,-0.466797 -0.0742,-0.101561 -0.1888,-0.152342 -0.34375,-0.152344 -0.18359,2e-6 -0.32942,0.0625 -0.4375,0.1875 -0.10807,0.1237 -0.16211,0.291668 -0.16211,0.503907 l 0,1.236328 -0.36132,0 0,-2.1875 0.36132,0 0,0.339843 c 0.082,-0.134112 0.18034,-0.23307 0.29493,-0.296875 0.11458,-0.0638 0.25065,-0.0957 0.4082,-0.0957 0.15885,3e-6 0.29362,0.04037 0.4043,0.121094 0.11197,0.08073 0.19466,0.197919 0.24804,0.351563"
         style=""
         id="path5319" />
      <path
         d="m 347.79492,17.42645 c -0.19271,2e-6 -0.34505,0.07552 -0.45703,0.226562 -0.11198,0.149741 -0.16797,0.35547 -0.16797,0.617188 0,0.261719 0.0553,0.468099 0.16602,0.61914 0.11198,0.14974 0.26497,0.22461 0.45898,0.22461 0.19141,0 0.3431,-0.07552 0.45508,-0.226563 0.11198,-0.151041 0.16797,-0.35677 0.16797,-0.617187 0,-0.259113 -0.056,-0.464191 -0.16797,-0.615235 -0.11198,-0.152341 -0.26367,-0.228513 -0.45508,-0.228515 m 0,-0.304688 c 0.3125,3e-6 0.55794,0.101565 0.73633,0.304688 0.17838,0.203127 0.26758,0.484376 0.26758,0.84375 0,0.358073 -0.0892,0.639323 -0.26758,0.84375 -0.17839,0.203125 -0.42383,0.304687 -0.73633,0.304687 -0.3138,0 -0.55989,-0.101562 -0.73828,-0.304687 -0.17708,-0.204427 -0.26562,-0.485677 -0.26562,-0.84375 0,-0.359374 0.0885,-0.640623 0.26562,-0.84375 0.17839,-0.203123 0.42448,-0.304685 0.73828,-0.304688"
         style=""
         id="path5321" />
      <path
         d="m 349.13477,17.174497 0.38085,0 0.6836,1.835937 0.68359,-1.835937 0.38086,0 -0.82031,2.1875 -0.48828,0 -0.82031,-2.1875"
         style=""
         id="path5323" />
      <path
         d="m 353.63086,18.178403 0,0.175781 -1.65234,0 c 0.0156,0.247397 0.0898,0.436199 0.22265,0.566406 0.13412,0.128907 0.32031,0.19336 0.5586,0.19336 0.13801,0 0.27148,-0.01693 0.40039,-0.05078 0.1302,-0.03385 0.25911,-0.08464 0.38671,-0.152344 l 0,0.339844 c -0.1289,0.05469 -0.26106,0.09635 -0.39648,0.125 -0.13542,0.02865 -0.27279,0.04297 -0.41211,0.04297 -0.34896,0 -0.62565,-0.101562 -0.83008,-0.304687 -0.20312,-0.203125 -0.30468,-0.477864 -0.30468,-0.824219 0,-0.358071 0.0963,-0.641925 0.28906,-0.851562 0.19401,-0.210936 0.45508,-0.316404 0.7832,-0.316407 0.29427,3e-6 0.52669,0.09505 0.69727,0.285157 0.17187,0.188803 0.25781,0.445965 0.25781,0.771484 m -0.35938,-0.105469 c -0.003,-0.196613 -0.0579,-0.353514 -0.16601,-0.470703 -0.10677,-0.117186 -0.2487,-0.175779 -0.42578,-0.175781 -0.20052,2e-6 -0.36133,0.05664 -0.48242,0.169922 -0.1198,0.113283 -0.18881,0.272788 -0.20704,0.478515 l 1.28125,-0.002"
         style=""
         id="path5325" />
    </g>
    <path
       inkscape:connector-curvature="0"
       id="path5016"
       d="m 514.42419,861.88244 267.31789,0"
       style="fill:none;stroke:#000000;stroke-width:5;stroke-linecap:butt;stroke-linejoin:miter;stroke-miterlimit:4;stroke-opacity:1;stroke-dasharray:none" />
    <path
       style="font-size:medium;font-style:normal;font-variant:normal;font-weight:normal;font-stretch:normal;text-indent:0;text-align:start;text-decoration:none;line-height:normal;letter-spacing:normal;word-spacing:normal;text-transform:none;direction:ltr;block-progression:tb;writing-mode:lr-tb;text-anchor:start;baseline-shift:baseline;color:#000000;fill:#000000;fill-opacity:1;stroke:none;stroke-width:5;marker:none;visibility:visible;display:inline;overflow:visible;enable-background:accumulate;font-family:Sans;-inkscape-font-specification:Sans"
       d="M 412 194.0625 L 407.65625 201.53125 L 403.40625 209.0625 L 409.65625 209.09375 L 409.65625 238.9375 L 145.71875 238.9375 L 143.21875 238.9375 L 143.21875 241.4375 L 143.21875 280.875 L 148.21875 280.875 L 148.21875 243.9375 L 650.34375 243.9375 L 650.34375 280.71875 L 655.34375 280.71875 L 655.34375 241.4375 L 655.34375 238.9375 L 652.84375 238.9375 L 414.65625 238.9375 L 414.65625 209.09375 L 420.6875 209.03125 L 416.40625 201.53125 L 412 194.0625 z "
       transform="translate(0,552.36218)"
       id="path5022" />
  </g>
</svg>
